<svg xmlns="http://www.w3.org/2000/svg" id="benefits-5" width="68" height="50" fill="none"><g opacity=".9"><mask id="a" width="68" height="50" x="0" y="0" fill="#000" maskUnits="userSpaceOnUse"><path fill="#fff" d="M0 0h68v50H0z"/><path d="M51.617 1a1.71 1.71 0 0 0-1.18.498l-5.594 5.583a1.7 1.7 0 0 0 0 2.412l.27.27a4.28 4.28 0 0 1-4.775.99 5.838 5.838 0 0 0-6.406 1.24l-.656.655a5.488 5.488 0 0 0-2.86-1.698 20.08 20.08 0 0 0-7.195.017 1.702 1.702 0 0 0-.06-2.343l-5.597-5.585a1.712 1.712 0 0 0-2.415 0L1.5 16.659a1.702 1.702 0 0 0 0 2.41l5.596 5.585a1.71 1.71 0 0 0 2.416 0l.24-.244a17.222 17.222 0 0 1 3.35 5.42 12.444 12.444 0 0 0 3.666 4.127 3.148 3.148 0 0 0 .563 4.577c.708.514 1.599.712 2.459.545a3.152 3.152 0 0 0 1.604 3.782c.676.335 1.45.418 2.181.233a3.146 3.146 0 0 0 .492 2.604 3.162 3.162 0 0 0 4.803.4l.298-.295A3.16 3.16 0 0 0 32.31 49a3.161 3.161 0 0 0 2.249-.921l2.468-2.46a3.17 3.17 0 0 0 .263-.3 3.166 3.166 0 0 0 4.192-.511 3.15 3.15 0 0 0 .778-2.12l.427.424a3.164 3.164 0 0 0 5.068-.833 3.146 3.146 0 0 0-.047-2.88 3.163 3.163 0 0 0 2.515-.946 3.149 3.149 0 0 0 .876-2.536l3.581-3.575a9.252 9.252 0 0 0 2.688-5.831 23.34 23.34 0 0 1 .633-3.878l.49.483a1.71 1.71 0 0 0 2.416 0l5.593-5.582a1.702 1.702 0 0 0 0-2.41L52.852 1.505a1.71 1.71 0 0 0-1.234-.498V1Zm.015.889a.818.818 0 0 1 .587.24l13.646 13.618a.815.815 0 0 1 0 1.152l-5.591 5.582a.819.819 0 0 1-1.155 0L45.467 8.862a.813.813 0 0 1 0-1.15l5.597-5.581a.818.818 0 0 1 .568-.241ZM16.344 3.427a.816.816 0 0 1 .59.238l5.593 5.585a.813.813 0 0 1 0 1.15L8.879 24.02a.818.818 0 0 1-1.156 0l-5.59-5.582a.815.815 0 0 1 0-1.153L15.78 3.665a.813.813 0 0 1 .563-.238ZM45.74 10.39l11.536 11.506a24.245 24.245 0 0 0-.795 4.542 8.365 8.365 0 0 1-2.43 5.27l-3.227 3.217a3.156 3.156 0 0 0-.633-.903L36.764 20.625a8.557 8.557 0 0 0 5.225-1.39.444.444 0 0 0-.488-.742 7.661 7.661 0 0 1-6.198.996 1.71 1.71 0 0 0-1.651.44l-6.154 6.142a2.27 2.27 0 0 1-3.76-1.032c-.212-.77 0-1.595.556-2.17l10.267-10.245a4.943 4.943 0 0 1 5.427-1.051 5.175 5.175 0 0 0 5.75-1.182Zm-17.991 1.153c.834.039 1.666.132 2.488.279a4.593 4.593 0 0 1 2.406 1.456l-8.98 8.962a3.148 3.148 0 0 0 1.43 5.246 3.164 3.164 0 0 0 3.037-.787l6.154-6.141a.818.818 0 0 1 1.155 0L49.559 34.65a2.26 2.26 0 0 1-1.027 3.758c-.774.211-1.601 0-2.177-.558l-3.634-3.626a.445.445 0 0 0-.633.628l4.435 4.426a2.26 2.26 0 0 1-1.044 3.73 2.271 2.271 0 0 1-2.163-.532l-6.445-6.43a.446.446 0 0 0-.63.629l4.462 4.457c.538.547.76 1.328.594 2.075-.166.748-.7 1.36-1.419 1.628a2.273 2.273 0 0 1-2.141-.3 3.146 3.146 0 0 0-1.58-3.995 3.163 3.163 0 0 0-2.307-.163 3.146 3.146 0 0 0-.398-2.254 3.166 3.166 0 0 0-4.104-1.188 3.147 3.147 0 0 0-.777-2.38 3.161 3.161 0 0 0-4.602-.143l-.778.777a3.15 3.15 0 0 0-.902-2.253 3.162 3.162 0 0 0-4.488-.024l-.4.397a11.568 11.568 0 0 1-3.484-3.858 18.117 18.117 0 0 0-3.526-5.675l11.665-11.641a19.171 19.171 0 0 1 5.696-.591h-.004Zm-7.82 21.337a2.271 2.271 0 0 1 1.658.614 2.262 2.262 0 0 1 .05 3.248l-.842.837a2.27 2.27 0 0 1-3.731-1.043 2.26 2.26 0 0 1 .526-2.155l.836-.84a2.27 2.27 0 0 1 1.503-.66Zm6.305 1.538a2.27 2.27 0 0 1 2.195 2.249 2.262 2.262 0 0 1-.624 1.573l-3.399 3.394a2.271 2.271 0 0 1-3.73-1.043 2.261 2.261 0 0 1 .525-2.154l3.399-3.395a2.27 2.27 0 0 1 1.634-.623Zm4.566 3.111a2.27 2.27 0 0 1 1.55.689 2.258 2.258 0 0 1 .006 3.141l-2.261 2.257-1.852 1.848a2.272 2.272 0 0 1-3.797-1.013 2.261 2.261 0 0 1 .586-2.188l4.12-4.105a2.269 2.269 0 0 1 1.648-.629Zm4.026 3.632a2.27 2.27 0 0 1 1.552.685 2.258 2.258 0 0 1 .015 3.14l-2.461 2.46a2.27 2.27 0 0 1-3.783-1.02 2.26 2.26 0 0 1 .576-2.182l2.464-2.46a2.27 2.27 0 0 1 1.636-.623Z"/></mask><path fill="#B01736" d="M51.617 1a1.71 1.71 0 0 0-1.18.498l-5.594 5.583a1.7 1.7 0 0 0 0 2.412l.27.27a4.28 4.28 0 0 1-4.775.99 5.838 5.838 0 0 0-6.406 1.24l-.656.655a5.488 5.488 0 0 0-2.86-1.698 20.08 20.08 0 0 0-7.195.017 1.702 1.702 0 0 0-.06-2.343l-5.597-5.585a1.712 1.712 0 0 0-2.415 0L1.5 16.659a1.702 1.702 0 0 0 0 2.41l5.596 5.585a1.71 1.71 0 0 0 2.416 0l.24-.244a17.222 17.222 0 0 1 3.35 5.42 12.444 12.444 0 0 0 3.666 4.127 3.148 3.148 0 0 0 .563 4.577c.708.514 1.599.712 2.459.545a3.152 3.152 0 0 0 1.604 3.782c.676.335 1.45.418 2.181.233a3.146 3.146 0 0 0 .492 2.604 3.162 3.162 0 0 0 4.803.4l.298-.295A3.16 3.16 0 0 0 32.31 49a3.161 3.161 0 0 0 2.249-.921l2.468-2.46a3.17 3.17 0 0 0 .263-.3 3.166 3.166 0 0 0 4.192-.511 3.15 3.15 0 0 0 .778-2.12l.427.424a3.164 3.164 0 0 0 5.068-.833 3.146 3.146 0 0 0-.047-2.88 3.163 3.163 0 0 0 2.515-.946 3.149 3.149 0 0 0 .876-2.536l3.581-3.575a9.252 9.252 0 0 0 2.688-5.831 23.34 23.34 0 0 1 .633-3.878l.49.483a1.71 1.71 0 0 0 2.416 0l5.593-5.582a1.702 1.702 0 0 0 0-2.41L52.852 1.505a1.71 1.71 0 0 0-1.234-.498V1Zm.015.889a.818.818 0 0 1 .587.24l13.646 13.618a.815.815 0 0 1 0 1.152l-5.591 5.582a.819.819 0 0 1-1.155 0L45.467 8.862a.813.813 0 0 1 0-1.15l5.597-5.581a.818.818 0 0 1 .568-.241ZM16.344 3.427a.816.816 0 0 1 .59.238l5.593 5.585a.813.813 0 0 1 0 1.15L8.879 24.02a.818.818 0 0 1-1.156 0l-5.59-5.582a.815.815 0 0 1 0-1.153L15.78 3.665a.813.813 0 0 1 .563-.238ZM45.74 10.39l11.536 11.506a24.245 24.245 0 0 0-.795 4.542 8.365 8.365 0 0 1-2.43 5.27l-3.227 3.217a3.156 3.156 0 0 0-.633-.903L36.764 20.625a8.557 8.557 0 0 0 5.225-1.39.444.444 0 0 0-.488-.742 7.661 7.661 0 0 1-6.198.996 1.71 1.71 0 0 0-1.651.44l-6.154 6.142a2.27 2.27 0 0 1-3.76-1.032c-.212-.77 0-1.595.556-2.17l10.267-10.245a4.943 4.943 0 0 1 5.427-1.051 5.175 5.175 0 0 0 5.75-1.182Zm-17.991 1.153c.834.039 1.666.132 2.488.279a4.593 4.593 0 0 1 2.406 1.456l-8.98 8.962a3.148 3.148 0 0 0 1.43 5.246 3.164 3.164 0 0 0 3.037-.787l6.154-6.141a.818.818 0 0 1 1.155 0L49.559 34.65a2.26 2.26 0 0 1-1.027 3.758c-.774.211-1.601 0-2.177-.558l-3.634-3.626a.445.445 0 0 0-.633.628l4.435 4.426a2.26 2.26 0 0 1-1.044 3.73 2.271 2.271 0 0 1-2.163-.532l-6.445-6.43a.446.446 0 0 0-.63.629l4.462 4.457c.538.547.76 1.328.594 2.075-.166.748-.7 1.36-1.419 1.628a2.273 2.273 0 0 1-2.141-.3 3.146 3.146 0 0 0-1.58-3.995 3.163 3.163 0 0 0-2.307-.163 3.146 3.146 0 0 0-.398-2.254 3.166 3.166 0 0 0-4.104-1.188 3.147 3.147 0 0 0-.777-2.38 3.161 3.161 0 0 0-4.602-.143l-.778.777a3.15 3.15 0 0 0-.902-2.253 3.162 3.162 0 0 0-4.488-.024l-.4.397a11.568 11.568 0 0 1-3.484-3.858 18.117 18.117 0 0 0-3.526-5.675l11.665-11.641a19.171 19.171 0 0 1 5.696-.591h-.004Zm-7.82 21.337a2.271 2.271 0 0 1 1.658.614 2.262 2.262 0 0 1 .05 3.248l-.842.837a2.27 2.27 0 0 1-3.731-1.043 2.26 2.26 0 0 1 .526-2.155l.836-.84a2.27 2.27 0 0 1 1.503-.66Zm6.305 1.538a2.27 2.27 0 0 1 2.195 2.249 2.262 2.262 0 0 1-.624 1.573l-3.399 3.394a2.271 2.271 0 0 1-3.73-1.043 2.261 2.261 0 0 1 .525-2.154l3.399-3.395a2.27 2.27 0 0 1 1.634-.623Zm4.566 3.111a2.27 2.27 0 0 1 1.55.689 2.258 2.258 0 0 1 .006 3.141l-2.261 2.257-1.852 1.848a2.272 2.272 0 0 1-3.797-1.013 2.261 2.261 0 0 1 .586-2.188l4.12-4.105a2.269 2.269 0 0 1 1.648-.629Zm4.026 3.632a2.27 2.27 0 0 1 1.552.685 2.258 2.258 0 0 1 .015 3.14l-2.461 2.46a2.27 2.27 0 0 1-3.783-1.02 2.26 2.26 0 0 1 .576-2.182l2.464-2.46a2.27 2.27 0 0 1 1.636-.623Z"/><path stroke="#B01736" d="M51.617 1a1.71 1.71 0 0 0-1.18.498l-5.594 5.583a1.7 1.7 0 0 0 0 2.412l.27.27a4.28 4.28 0 0 1-4.775.99 5.838 5.838 0 0 0-6.406 1.24l-.656.655a5.488 5.488 0 0 0-2.86-1.698 20.08 20.08 0 0 0-7.195.017 1.702 1.702 0 0 0-.06-2.343l-5.597-5.585a1.712 1.712 0 0 0-2.415 0L1.5 16.659a1.702 1.702 0 0 0 0 2.41l5.596 5.585a1.71 1.71 0 0 0 2.416 0l.24-.244a17.222 17.222 0 0 1 3.35 5.42 12.444 12.444 0 0 0 3.666 4.127 3.148 3.148 0 0 0 .563 4.577c.708.514 1.599.712 2.459.545a3.152 3.152 0 0 0 1.604 3.782c.676.335 1.45.418 2.181.233a3.146 3.146 0 0 0 .492 2.604 3.162 3.162 0 0 0 4.803.4l.298-.295A3.16 3.16 0 0 0 32.31 49a3.161 3.161 0 0 0 2.249-.921l2.468-2.46a3.17 3.17 0 0 0 .263-.3 3.166 3.166 0 0 0 4.192-.511 3.15 3.15 0 0 0 .778-2.12l.427.424a3.164 3.164 0 0 0 5.068-.833 3.146 3.146 0 0 0-.047-2.88 3.163 3.163 0 0 0 2.515-.946 3.149 3.149 0 0 0 .876-2.536l3.581-3.575a9.252 9.252 0 0 0 2.688-5.831 23.34 23.34 0 0 1 .633-3.878l.49.483a1.71 1.71 0 0 0 2.416 0l5.593-5.582a1.702 1.702 0 0 0 0-2.41L52.852 1.505a1.71 1.71 0 0 0-1.234-.498V1Zm.015.889a.818.818 0 0 1 .587.24l13.646 13.618a.815.815 0 0 1 0 1.152l-5.591 5.582a.819.819 0 0 1-1.155 0L45.467 8.862a.813.813 0 0 1 0-1.15l5.597-5.581a.818.818 0 0 1 .568-.241ZM16.344 3.427a.816.816 0 0 1 .59.238l5.593 5.585a.813.813 0 0 1 0 1.15L8.879 24.02a.818.818 0 0 1-1.156 0l-5.59-5.582a.815.815 0 0 1 0-1.153L15.78 3.665a.813.813 0 0 1 .563-.238ZM45.74 10.39l11.536 11.506a24.245 24.245 0 0 0-.795 4.542 8.365 8.365 0 0 1-2.43 5.27l-3.227 3.217a3.156 3.156 0 0 0-.633-.903L36.764 20.625a8.557 8.557 0 0 0 5.225-1.39.444.444 0 0 0-.488-.742 7.661 7.661 0 0 1-6.198.996 1.71 1.71 0 0 0-1.651.44l-6.154 6.142a2.27 2.27 0 0 1-3.76-1.032c-.212-.77 0-1.595.556-2.17l10.267-10.245a4.943 4.943 0 0 1 5.427-1.051 5.175 5.175 0 0 0 5.75-1.182Zm-17.991 1.153c.834.039 1.666.132 2.488.279a4.593 4.593 0 0 1 2.406 1.456l-8.98 8.962a3.148 3.148 0 0 0 1.43 5.246 3.164 3.164 0 0 0 3.037-.787l6.154-6.141a.818.818 0 0 1 1.155 0L49.559 34.65a2.26 2.26 0 0 1-1.027 3.758c-.774.211-1.601 0-2.177-.558l-3.634-3.626a.445.445 0 0 0-.633.628l4.435 4.426a2.26 2.26 0 0 1-1.044 3.73 2.271 2.271 0 0 1-2.163-.532l-6.445-6.43a.446.446 0 0 0-.63.629l4.462 4.457c.538.547.76 1.328.594 2.075-.166.748-.7 1.36-1.419 1.628a2.273 2.273 0 0 1-2.141-.3 3.146 3.146 0 0 0-1.58-3.995 3.163 3.163 0 0 0-2.307-.163 3.146 3.146 0 0 0-.398-2.254 3.166 3.166 0 0 0-4.104-1.188 3.147 3.147 0 0 0-.777-2.38 3.161 3.161 0 0 0-4.602-.143l-.778.777a3.15 3.15 0 0 0-.902-2.253 3.162 3.162 0 0 0-4.488-.024l-.4.397a11.568 11.568 0 0 1-3.484-3.858 18.117 18.117 0 0 0-3.526-5.675l11.665-11.641a19.171 19.171 0 0 1 5.696-.591h-.004Zm-7.82 21.337a2.271 2.271 0 0 1 1.658.614 2.262 2.262 0 0 1 .05 3.248l-.842.837a2.27 2.27 0 0 1-3.731-1.043 2.26 2.26 0 0 1 .526-2.155l.836-.84a2.27 2.27 0 0 1 1.503-.66Zm6.305 1.538a2.27 2.27 0 0 1 2.195 2.249 2.262 2.262 0 0 1-.624 1.573l-3.399 3.394a2.271 2.271 0 0 1-3.73-1.043 2.261 2.261 0 0 1 .525-2.154l3.399-3.395a2.27 2.27 0 0 1 1.634-.623Zm4.566 3.111a2.27 2.27 0 0 1 1.55.689 2.258 2.258 0 0 1 .006 3.141l-2.261 2.257-1.852 1.848a2.272 2.272 0 0 1-3.797-1.013 2.261 2.261 0 0 1 .586-2.188l4.12-4.105a2.269 2.269 0 0 1 1.648-.629Zm4.026 3.632a2.27 2.27 0 0 1 1.552.685 2.258 2.258 0 0 1 .015 3.14l-2.461 2.46a2.27 2.27 0 0 1-3.783-1.02 2.26 2.26 0 0 1 .576-2.182l2.464-2.46a2.27 2.27 0 0 1 1.636-.623Z" mask="url(#a)"/></g></svg>