<svg width="1190" height="605" viewBox="0 0 1190 605" fill="none" xmlns="http://www.w3.org/2000/svg">
<circle cx="153.5" cy="135.599" r="4" fill="#444444"/>
<path d="M104.945 156.791C103.622 156.791 102.566 156.279 101.777 155.255C100.987 154.221 100.593 152.893 100.593 151.271C100.593 149.639 100.987 148.311 101.777 147.287C102.566 146.263 103.622 145.751 104.945 145.751C106.449 145.751 107.574 146.535 108.321 148.103L106.849 148.759C106.433 147.799 105.798 147.319 104.945 147.319C104.177 147.319 103.558 147.687 103.089 148.423C102.63 149.159 102.401 150.109 102.401 151.271C102.401 152.423 102.63 153.367 103.089 154.103C103.558 154.839 104.177 155.207 104.945 155.207C105.393 155.207 105.777 155.063 106.097 154.775C106.427 154.487 106.683 154.109 106.865 153.639L108.337 154.295C107.611 155.959 106.481 156.791 104.945 156.791ZM115.247 156.599H113.663V155.815C113.193 156.466 112.516 156.791 111.631 156.791C110.969 156.791 110.409 156.562 109.951 156.103C109.492 155.634 109.263 155.005 109.263 154.215C109.263 153.426 109.492 152.813 109.951 152.375C110.409 151.927 110.969 151.703 111.631 151.703C112.537 151.703 113.215 152.013 113.663 152.631V151.511C113.663 151.042 113.529 150.679 113.263 150.423C113.007 150.167 112.639 150.039 112.159 150.039C111.455 150.039 110.815 150.333 110.239 150.919L109.615 149.799C110.361 149.053 111.305 148.679 112.447 148.679C113.3 148.679 113.977 148.898 114.479 149.335C114.991 149.762 115.247 150.423 115.247 151.319V156.599ZM112.207 155.687C112.847 155.687 113.332 155.405 113.663 154.839V153.671C113.513 153.405 113.305 153.197 113.039 153.047C112.772 152.887 112.495 152.807 112.207 152.807C111.801 152.807 111.476 152.941 111.231 153.207C110.985 153.474 110.863 153.821 110.863 154.247C110.863 154.674 110.985 155.021 111.231 155.287C111.476 155.554 111.801 155.687 112.207 155.687ZM118.732 156.599H117.132V148.871H118.732V151.911H121.42V148.871H123.004V156.599H121.42V153.303H118.732V156.599ZM131.121 156.599H129.249L127.425 153.367L126.497 154.615V156.599H124.897V148.871H126.497V152.663L129.217 148.871H131.073L128.513 152.343L131.121 156.599ZM134.882 156.599H133.282V150.263H131.538V148.871H136.626V150.263H134.882V156.599ZM140.73 153.415H137.386V152.039H140.73V153.415ZM149.683 156.599H147.907V147.479H144.003V156.599H142.227V145.927H149.683V156.599ZM154.72 156.791C153.664 156.791 152.821 156.418 152.192 155.671C151.562 154.925 151.248 153.943 151.248 152.727C151.248 151.575 151.546 150.615 152.144 149.847C152.752 149.069 153.557 148.679 154.56 148.679C155.573 148.679 156.362 149.063 156.928 149.831C157.493 150.599 157.776 151.586 157.776 152.791V153.255H152.864C152.896 153.917 153.088 154.455 153.44 154.871C153.792 155.277 154.272 155.479 154.88 155.479C155.573 155.479 156.154 155.202 156.624 154.647L157.392 155.607C156.698 156.397 155.808 156.791 154.72 156.791ZM156.224 152.119C156.213 151.554 156.069 151.058 155.792 150.631C155.525 150.194 155.109 149.975 154.544 149.975C154 149.975 153.589 150.194 153.312 150.631C153.034 151.069 152.88 151.565 152.848 152.119H156.224ZM161.898 156.599H160.298V150.263H158.554V148.871H163.642V150.263H161.898V156.599ZM167.954 156.791C166.898 156.791 166.055 156.418 165.426 155.671C164.797 154.925 164.482 153.943 164.482 152.727C164.482 151.575 164.781 150.615 165.378 149.847C165.986 149.069 166.791 148.679 167.794 148.679C168.807 148.679 169.597 149.063 170.162 149.831C170.727 150.599 171.01 151.586 171.01 152.791V153.255H166.098C166.13 153.917 166.322 154.455 166.674 154.871C167.026 155.277 167.506 155.479 168.114 155.479C168.807 155.479 169.389 155.202 169.858 154.647L170.626 155.607C169.933 156.397 169.042 156.791 167.954 156.791ZM169.458 152.119C169.447 151.554 169.303 151.058 169.026 150.631C168.759 150.194 168.343 149.975 167.778 149.975C167.234 149.975 166.823 150.194 166.546 150.631C166.269 151.069 166.114 151.565 166.082 152.119H169.458ZM178.076 155.687C177.575 156.423 176.892 156.791 176.028 156.791C175.164 156.791 174.503 156.381 174.044 155.559V159.543H172.444V148.871H174.044V149.895C174.268 149.511 174.556 149.213 174.908 148.999C175.26 148.786 175.633 148.679 176.028 148.679C176.903 148.679 177.591 149.042 178.092 149.767C178.593 150.493 178.844 151.479 178.844 152.727C178.844 153.965 178.588 154.951 178.076 155.687ZM175.548 155.383C176.081 155.383 176.487 155.138 176.764 154.647C177.052 154.146 177.196 153.506 177.196 152.727C177.196 151.949 177.052 151.314 176.764 150.823C176.487 150.333 176.081 150.087 175.548 150.087C175.249 150.087 174.956 150.189 174.668 150.391C174.391 150.594 174.183 150.845 174.044 151.143V154.311C174.183 154.61 174.391 154.866 174.668 155.079C174.956 155.282 175.249 155.383 175.548 155.383ZM183.263 155.383C183.818 155.383 184.239 155.127 184.527 154.615C184.815 154.093 184.959 153.453 184.959 152.695C184.959 151.97 184.815 151.357 184.527 150.855C184.239 150.343 183.818 150.087 183.263 150.087C182.719 150.087 182.303 150.343 182.015 150.855C181.727 151.357 181.583 151.97 181.583 152.695C181.583 153.453 181.727 154.093 182.015 154.615C182.303 155.127 182.719 155.383 183.263 155.383ZM183.263 156.791C182.196 156.791 181.375 156.386 180.799 155.575C180.223 154.754 179.935 153.687 179.935 152.375C179.935 150.402 180.175 149.01 180.655 148.199C181.146 147.389 182.02 146.877 183.279 146.663C183.844 146.567 184.234 146.466 184.447 146.359C184.671 146.253 184.783 146.109 184.783 145.927H186.367C186.367 146.279 186.282 146.589 186.111 146.855C185.94 147.111 185.7 147.314 185.391 147.463C185.092 147.613 184.815 147.725 184.559 147.799C184.303 147.874 184.01 147.938 183.679 147.991C182.207 148.226 181.407 148.861 181.279 149.895C181.503 149.522 181.812 149.229 182.207 149.015C182.602 148.791 183.044 148.679 183.535 148.679C184.484 148.679 185.231 149.069 185.775 149.847C186.33 150.626 186.607 151.581 186.607 152.711C186.607 153.853 186.314 154.818 185.727 155.607C185.14 156.397 184.319 156.791 183.263 156.791ZM187.891 159.623L188.131 158.215C188.269 158.29 188.44 158.327 188.643 158.327C189.069 158.327 189.363 158.114 189.523 157.687L189.843 156.759L187.251 148.871H188.947L190.659 154.679L192.387 148.871H194.083L191.027 158.055C190.824 158.674 190.536 159.106 190.163 159.351C189.8 159.607 189.331 159.735 188.755 159.735C188.424 159.735 188.136 159.698 187.891 159.623ZM200.67 155.687C200.168 156.423 199.486 156.791 198.622 156.791C197.758 156.791 197.096 156.381 196.638 155.559V159.543H195.038V148.871H196.638V149.895C196.862 149.511 197.15 149.213 197.502 148.999C197.854 148.786 198.227 148.679 198.622 148.679C199.496 148.679 200.184 149.042 200.686 149.767C201.187 150.493 201.438 151.479 201.438 152.727C201.438 153.965 201.182 154.951 200.67 155.687ZM198.142 155.383C198.675 155.383 199.08 155.138 199.358 154.647C199.646 154.146 199.79 153.506 199.79 152.727C199.79 151.949 199.646 151.314 199.358 150.823C199.08 150.333 198.675 150.087 198.142 150.087C197.843 150.087 197.55 150.189 197.262 150.391C196.984 150.594 196.776 150.845 196.638 151.143V154.311C196.776 154.61 196.984 154.866 197.262 155.079C197.55 155.282 197.843 155.383 198.142 155.383ZM207.713 148.871V150.263H204.513V156.599H202.913V148.871H207.713Z" fill="#444444"/>
<circle cx="42.5" cy="128.496" r="4" fill="#444444"/>
<path d="M17.336 146.496H15.764L13.7 143.196L13.1 144.108V146.496H11.768V138.492H13.1V142.344L15.584 138.492H17.144L14.528 142.272L17.336 146.496ZM22.2241 146.496H21.0361V145.908C20.6841 146.396 20.1761 146.64 19.5121 146.64C19.0161 146.64 18.5961 146.468 18.2521 146.124C17.9081 145.772 17.7361 145.3 17.7361 144.708C17.7361 144.116 17.9081 143.656 18.2521 143.328C18.5961 142.992 19.0161 142.824 19.5121 142.824C20.1921 142.824 20.7001 143.056 21.0361 143.52V142.68C21.0361 142.328 20.9361 142.056 20.7361 141.864C20.5441 141.672 20.2681 141.576 19.9081 141.576C19.3801 141.576 18.9001 141.796 18.4681 142.236L18.0001 141.396C18.5601 140.836 19.2681 140.556 20.1241 140.556C20.7641 140.556 21.2721 140.72 21.6481 141.048C22.0321 141.368 22.2241 141.864 22.2241 142.536V146.496ZM19.9441 145.812C20.4241 145.812 20.7881 145.6 21.0361 145.176V144.3C20.9241 144.1 20.7681 143.944 20.5681 143.832C20.3681 143.712 20.1601 143.652 19.9441 143.652C19.6401 143.652 19.3961 143.752 19.2121 143.952C19.0281 144.152 18.9361 144.412 18.9361 144.732C18.9361 145.052 19.0281 145.312 19.2121 145.512C19.3961 145.712 19.6401 145.812 19.9441 145.812ZM23.1457 146.64V145.62C23.3937 145.62 23.5857 145.488 23.7217 145.224C23.8657 144.96 23.9697 144.464 24.0337 143.736L24.2977 140.7H28.0417V146.496H26.8537V141.744H25.3897L25.2337 143.832C25.1537 144.856 24.9417 145.58 24.5977 146.004C24.2537 146.428 23.7697 146.64 23.1457 146.64ZM30.6259 146.496H29.4619V140.7H30.6619V144.336L32.6419 140.7H33.8659V146.496H32.6779V142.74L30.6259 146.496ZM36.4861 146.496H35.2861V140.7H36.4861V142.98H38.5021V140.7H39.6901V146.496H38.5021V144.024H36.4861V146.496ZM42.2743 146.496H41.1103V140.7H42.3103V144.336L44.2903 140.7H45.5143V146.496H44.3263V142.74L42.2743 146.496ZM48.1346 146.496H46.9346V140.7H48.1346V142.98H50.1506V140.7H51.3386V146.496H50.1506V144.024H48.1346V146.496ZM56.3588 140.7V141.744H53.9588V146.496H52.7588V140.7H56.3588ZM61.5062 145.812C61.1302 146.364 60.6182 146.64 59.9702 146.64C59.3222 146.64 58.8262 146.332 58.4822 145.716V148.704H57.2822V140.7H58.4822V141.468C58.6502 141.18 58.8662 140.956 59.1302 140.796C59.3942 140.636 59.6742 140.556 59.9702 140.556C60.6262 140.556 61.1422 140.828 61.5182 141.372C61.8942 141.916 62.0822 142.656 62.0822 143.592C62.0822 144.52 61.8902 145.26 61.5062 145.812ZM59.6102 145.584C60.0102 145.584 60.3142 145.4 60.5222 145.032C60.7382 144.656 60.8462 144.176 60.8462 143.592C60.8462 143.008 60.7382 142.532 60.5222 142.164C60.3142 141.796 60.0102 141.612 59.6102 141.612C59.3862 141.612 59.1662 141.688 58.9502 141.84C58.7422 141.992 58.5862 142.18 58.4822 142.404V144.78C58.5862 145.004 58.7422 145.196 58.9502 145.356C59.1662 145.508 59.3862 145.584 59.6102 145.584ZM67.3765 146.496H66.1885V145.908C65.8365 146.396 65.3285 146.64 64.6645 146.64C64.1685 146.64 63.7485 146.468 63.4045 146.124C63.0605 145.772 62.8885 145.3 62.8885 144.708C62.8885 144.116 63.0605 143.656 63.4045 143.328C63.7485 142.992 64.1685 142.824 64.6645 142.824C65.3445 142.824 65.8525 143.056 66.1885 143.52V142.68C66.1885 142.328 66.0885 142.056 65.8885 141.864C65.6965 141.672 65.4205 141.576 65.0605 141.576C64.5325 141.576 64.0525 141.796 63.6205 142.236L63.1525 141.396C63.7125 140.836 64.4205 140.556 65.2765 140.556C65.9165 140.556 66.4245 140.72 66.8005 141.048C67.1845 141.368 67.3765 141.864 67.3765 142.536V146.496ZM65.0965 145.812C65.5765 145.812 65.9405 145.6 66.1885 145.176V144.3C66.0765 144.1 65.9205 143.944 65.7205 143.832C65.5205 143.712 65.3125 143.652 65.0965 143.652C64.7925 143.652 64.5485 143.752 64.3645 143.952C64.1805 144.152 64.0885 144.412 64.0885 144.732C64.0885 145.052 64.1805 145.312 64.3645 145.512C64.5485 145.712 64.7925 145.812 65.0965 145.812ZM68.298 147.972V145.548C68.57 145.492 68.77 145.352 68.898 145.128C69.026 144.904 69.122 144.44 69.186 143.736L69.45 140.7H73.194V145.452H73.818V147.972H72.618V146.496H69.486V147.972H68.298ZM70.542 141.744L70.386 143.832C70.33 144.552 70.114 145.092 69.738 145.452H72.006V141.744H70.542Z" fill="#444444"/>
</svg>
