<svg width="1190" height="605" viewBox="0 0 1190 605" fill="none" xmlns="http://www.w3.org/2000/svg">
<circle cx="253.672" cy="303.099" r="4" fill="#444444"/>
<path d="M243.406 319.099H241.834L239.77 315.799L239.17 316.711V319.099H237.838V311.095H239.17V314.947L241.654 311.095H243.214L240.598 314.875L243.406 319.099ZM248.294 319.099H247.106V318.511C246.754 318.999 246.246 319.243 245.582 319.243C245.086 319.243 244.666 319.071 244.322 318.727C243.978 318.375 243.806 317.903 243.806 317.311C243.806 316.719 243.978 316.259 244.322 315.931C244.666 315.595 245.086 315.427 245.582 315.427C246.262 315.427 246.77 315.659 247.106 316.123V315.283C247.106 314.931 247.006 314.659 246.806 314.467C246.614 314.275 246.338 314.179 245.978 314.179C245.45 314.179 244.97 314.399 244.538 314.839L244.07 313.999C244.63 313.439 245.338 313.159 246.194 313.159C246.834 313.159 247.342 313.323 247.718 313.651C248.102 313.971 248.294 314.467 248.294 315.139V319.099ZM246.014 318.415C246.494 318.415 246.858 318.203 247.106 317.779V316.903C246.994 316.703 246.838 316.547 246.638 316.435C246.438 316.315 246.23 316.255 246.014 316.255C245.71 316.255 245.466 316.355 245.282 316.555C245.098 316.755 245.006 317.015 245.006 317.335C245.006 317.655 245.098 317.915 245.282 318.115C245.466 318.315 245.71 318.415 246.014 318.415ZM251.496 319.243C250.504 319.243 249.744 318.931 249.216 318.307L249.804 317.575C250.22 318.039 250.776 318.271 251.472 318.271C251.832 318.271 252.112 318.195 252.312 318.043C252.52 317.891 252.624 317.687 252.624 317.431C252.624 316.911 252.22 316.651 251.412 316.651H250.332V315.691H251.388C251.748 315.691 252.028 315.623 252.228 315.487C252.436 315.343 252.54 315.143 252.54 314.887C252.54 314.655 252.432 314.471 252.216 314.335C252.008 314.199 251.732 314.131 251.388 314.131C250.756 314.131 250.26 314.355 249.9 314.803L249.288 314.083C249.816 313.467 250.504 313.159 251.352 313.159C252.08 313.159 252.66 313.299 253.092 313.579C253.524 313.859 253.74 314.243 253.74 314.731C253.74 315.075 253.608 315.379 253.344 315.643C253.088 315.899 252.78 316.063 252.42 316.135C252.796 316.175 253.124 316.319 253.404 316.567C253.692 316.815 253.836 317.135 253.836 317.527C253.836 318.031 253.624 318.443 253.2 318.763C252.784 319.083 252.216 319.243 251.496 319.243ZM259.134 319.099H257.946V318.511C257.594 318.999 257.086 319.243 256.422 319.243C255.926 319.243 255.506 319.071 255.162 318.727C254.818 318.375 254.646 317.903 254.646 317.311C254.646 316.719 254.818 316.259 255.162 315.931C255.506 315.595 255.926 315.427 256.422 315.427C257.102 315.427 257.61 315.659 257.946 316.123V315.283C257.946 314.931 257.846 314.659 257.646 314.467C257.454 314.275 257.178 314.179 256.818 314.179C256.29 314.179 255.81 314.399 255.378 314.839L254.91 313.999C255.47 313.439 256.178 313.159 257.034 313.159C257.674 313.159 258.182 313.323 258.558 313.651C258.942 313.971 259.134 314.467 259.134 315.139V319.099ZM256.854 318.415C257.334 318.415 257.698 318.203 257.946 317.779V316.903C257.834 316.703 257.678 316.547 257.478 316.435C257.278 316.315 257.07 316.255 256.854 316.255C256.55 316.255 256.306 316.355 256.122 316.555C255.938 316.755 255.846 317.015 255.846 317.335C255.846 317.655 255.938 317.915 256.122 318.115C256.306 318.315 256.55 318.415 256.854 318.415ZM261.748 319.099H260.548V313.303H261.748V315.583H263.764V313.303H264.952V319.099H263.764V316.627H261.748V319.099ZM266.372 313.303H267.572V315.427H268.856C269.488 315.427 269.968 315.603 270.296 315.955C270.632 316.307 270.8 316.747 270.8 317.275C270.8 317.795 270.628 318.231 270.284 318.583C269.948 318.927 269.472 319.099 268.856 319.099H266.372V313.303ZM268.712 316.435H267.572V318.091H268.712C268.984 318.091 269.196 318.015 269.348 317.863C269.5 317.711 269.576 317.511 269.576 317.263C269.576 317.023 269.5 316.827 269.348 316.675C269.196 316.515 268.984 316.435 268.712 316.435Z" fill="#444444"/>
<circle cx="191.5" cy="311.099" r="4" fill="#444444"/>
<path d="M177.345 327.243C176.353 327.243 175.561 326.859 174.969 326.091C174.377 325.315 174.081 324.319 174.081 323.103C174.081 321.879 174.377 320.883 174.969 320.115C175.561 319.347 176.353 318.963 177.345 318.963C178.473 318.963 179.317 319.551 179.877 320.727L178.773 321.219C178.461 320.499 177.985 320.139 177.345 320.139C176.769 320.139 176.305 320.415 175.953 320.967C175.609 321.519 175.437 322.231 175.437 323.103C175.437 323.967 175.609 324.675 175.953 325.227C176.305 325.779 176.769 326.055 177.345 326.055C177.681 326.055 177.969 325.947 178.209 325.731C178.457 325.515 178.649 325.231 178.785 324.879L179.889 325.371C179.345 326.619 178.497 327.243 177.345 327.243ZM185.072 327.099H183.884V326.511C183.532 326.999 183.024 327.243 182.36 327.243C181.864 327.243 181.444 327.071 181.1 326.727C180.756 326.375 180.584 325.903 180.584 325.311C180.584 324.719 180.756 324.259 181.1 323.931C181.444 323.595 181.864 323.427 182.36 323.427C183.04 323.427 183.548 323.659 183.884 324.123V323.283C183.884 322.931 183.784 322.659 183.584 322.467C183.392 322.275 183.116 322.179 182.756 322.179C182.228 322.179 181.748 322.399 181.316 322.839L180.848 321.999C181.408 321.439 182.116 321.159 182.972 321.159C183.612 321.159 184.12 321.323 184.496 321.651C184.88 321.971 185.072 322.467 185.072 323.139V327.099ZM182.792 326.415C183.272 326.415 183.636 326.203 183.884 325.779V324.903C183.772 324.703 183.616 324.547 183.416 324.435C183.216 324.315 183.008 324.255 182.792 324.255C182.488 324.255 182.244 324.355 182.06 324.555C181.876 324.755 181.784 325.015 181.784 325.335C181.784 325.655 181.876 325.915 182.06 326.115C182.244 326.315 182.488 326.415 182.792 326.415ZM192.185 327.099H191.009V323.319L189.581 327.099H189.101L187.685 323.319V327.099H186.485V321.303H188.021L189.341 324.795L190.661 321.303H192.185V327.099ZM197.787 327.099H196.599V326.511C196.247 326.999 195.739 327.243 195.075 327.243C194.579 327.243 194.159 327.071 193.815 326.727C193.471 326.375 193.299 325.903 193.299 325.311C193.299 324.719 193.471 324.259 193.815 323.931C194.159 323.595 194.579 323.427 195.075 323.427C195.755 323.427 196.263 323.659 196.599 324.123V323.283C196.599 322.931 196.499 322.659 196.299 322.467C196.107 322.275 195.831 322.179 195.471 322.179C194.943 322.179 194.463 322.399 194.031 322.839L193.563 321.999C194.123 321.439 194.831 321.159 195.687 321.159C196.327 321.159 196.835 321.323 197.211 321.651C197.595 321.971 197.787 322.467 197.787 323.139V327.099ZM195.507 326.415C195.987 326.415 196.351 326.203 196.599 325.779V324.903C196.487 324.703 196.331 324.547 196.131 324.435C195.931 324.315 195.723 324.255 195.507 324.255C195.203 324.255 194.959 324.355 194.775 324.555C194.591 324.755 194.499 325.015 194.499 325.335C194.499 325.655 194.591 325.915 194.775 326.115C194.959 326.315 195.203 326.415 195.507 326.415ZM203.424 326.415C203.048 326.967 202.536 327.243 201.888 327.243C201.24 327.243 200.744 326.935 200.4 326.319V329.307H199.2V321.303H200.4V322.071C200.568 321.783 200.784 321.559 201.048 321.399C201.312 321.239 201.592 321.159 201.888 321.159C202.544 321.159 203.06 321.431 203.436 321.975C203.812 322.519 204 323.259 204 324.195C204 325.123 203.808 325.863 203.424 326.415ZM201.528 326.187C201.928 326.187 202.232 326.003 202.44 325.635C202.656 325.259 202.764 324.779 202.764 324.195C202.764 323.611 202.656 323.135 202.44 322.767C202.232 322.399 201.928 322.215 201.528 322.215C201.304 322.215 201.084 322.291 200.868 322.443C200.66 322.595 200.504 322.783 200.4 323.007V325.383C200.504 325.607 200.66 325.799 200.868 325.959C201.084 326.111 201.304 326.187 201.528 326.187ZM209.294 327.099H208.106V326.511C207.754 326.999 207.246 327.243 206.582 327.243C206.086 327.243 205.666 327.071 205.322 326.727C204.978 326.375 204.806 325.903 204.806 325.311C204.806 324.719 204.978 324.259 205.322 323.931C205.666 323.595 206.086 323.427 206.582 323.427C207.262 323.427 207.77 323.659 208.106 324.123V323.283C208.106 322.931 208.006 322.659 207.806 322.467C207.614 322.275 207.338 322.179 206.978 322.179C206.45 322.179 205.97 322.399 205.538 322.839L205.07 321.999C205.63 321.439 206.338 321.159 207.194 321.159C207.834 321.159 208.342 321.323 208.718 321.651C209.102 321.971 209.294 322.467 209.294 323.139V327.099ZM207.014 326.415C207.494 326.415 207.858 326.203 208.106 325.779V324.903C207.994 324.703 207.838 324.547 207.638 324.435C207.438 324.315 207.23 324.255 207.014 324.255C206.71 324.255 206.466 324.355 206.282 324.555C206.098 324.755 206.006 325.015 206.006 325.335C206.006 325.655 206.098 325.915 206.282 326.115C206.466 326.315 206.71 326.415 207.014 326.415Z" fill="#444444"/>
<circle cx="196.172" cy="264.961" r="4" fill="#444444"/>
<path d="M173.083 280.961H171.751V277.433H168.823V280.961H167.491V272.957H168.823V276.257H171.751V272.957H173.083V280.961ZM175.288 281.093C175.072 281.093 174.884 281.013 174.724 280.853C174.564 280.693 174.484 280.501 174.484 280.277C174.484 280.061 174.564 279.873 174.724 279.713C174.884 279.553 175.072 279.473 175.288 279.473C175.512 279.473 175.7 279.553 175.852 279.713C176.012 279.873 176.092 280.061 176.092 280.277C176.092 280.501 176.012 280.693 175.852 280.853C175.7 281.013 175.512 281.093 175.288 281.093ZM185.645 280.961H184.313V277.433H181.385V280.961H180.053V272.957H181.385V276.257H184.313V272.957H185.645V280.961ZM191.162 280.229C190.722 280.813 190.11 281.105 189.326 281.105C188.542 281.105 187.926 280.813 187.478 280.229C187.038 279.645 186.818 278.921 186.818 278.057C186.818 277.193 187.038 276.473 187.478 275.897C187.918 275.313 188.534 275.021 189.326 275.021C190.118 275.021 190.734 275.313 191.174 275.897C191.614 276.473 191.834 277.193 191.834 278.057C191.834 278.921 191.61 279.645 191.162 280.229ZM188.378 279.473C188.594 279.857 188.91 280.049 189.326 280.049C189.742 280.049 190.058 279.857 190.274 279.473C190.49 279.089 190.598 278.617 190.598 278.057C190.598 277.497 190.49 277.029 190.274 276.653C190.058 276.269 189.742 276.077 189.326 276.077C188.91 276.077 188.594 276.269 188.378 276.653C188.162 277.029 188.054 277.497 188.054 278.057C188.054 278.617 188.162 279.089 188.378 279.473ZM195.714 280.961H192.966V275.165H195.642C196.21 275.165 196.642 275.305 196.938 275.585C197.242 275.857 197.394 276.209 197.394 276.641C197.394 276.977 197.302 277.261 197.118 277.493C196.942 277.717 196.702 277.873 196.398 277.961C196.718 278.033 196.982 278.205 197.19 278.477C197.398 278.741 197.502 279.045 197.502 279.389C197.502 279.861 197.35 280.241 197.046 280.529C196.75 280.817 196.306 280.961 195.714 280.961ZM195.462 279.953C196.006 279.953 196.278 279.713 196.278 279.233C196.278 279.025 196.206 278.849 196.062 278.705C195.926 278.561 195.726 278.489 195.462 278.489H194.166V279.953H195.462ZM195.414 277.493C195.91 277.493 196.158 277.273 196.158 276.833C196.158 276.633 196.094 276.473 195.966 276.353C195.846 276.225 195.662 276.161 195.414 276.161H194.166V277.493H195.414ZM202.413 275.165V276.209H200.013V280.961H198.813V275.165H202.413ZM207.393 280.229C206.953 280.813 206.341 281.105 205.557 281.105C204.773 281.105 204.157 280.813 203.709 280.229C203.269 279.645 203.049 278.921 203.049 278.057C203.049 277.193 203.269 276.473 203.709 275.897C204.149 275.313 204.765 275.021 205.557 275.021C206.349 275.021 206.965 275.313 207.405 275.897C207.845 276.473 208.065 277.193 208.065 278.057C208.065 278.921 207.841 279.645 207.393 280.229ZM204.609 279.473C204.825 279.857 205.141 280.049 205.557 280.049C205.973 280.049 206.289 279.857 206.505 279.473C206.721 279.089 206.829 278.617 206.829 278.057C206.829 277.497 206.721 277.029 206.505 276.653C206.289 276.269 205.973 276.077 205.557 276.077C205.141 276.077 204.825 276.269 204.609 276.653C204.393 277.029 204.285 277.497 204.285 278.057C204.285 278.617 204.393 279.089 204.609 279.473ZM213.42 280.277C213.044 280.829 212.532 281.105 211.884 281.105C211.236 281.105 210.74 280.797 210.396 280.181V283.169H209.196V275.165H210.396V275.933C210.564 275.645 210.78 275.421 211.044 275.261C211.308 275.101 211.588 275.021 211.884 275.021C212.54 275.021 213.056 275.293 213.432 275.837C213.808 276.381 213.996 277.121 213.996 278.057C213.996 278.985 213.804 279.725 213.42 280.277ZM211.524 280.049C211.924 280.049 212.228 279.865 212.436 279.497C212.652 279.121 212.76 278.641 212.76 278.057C212.76 277.473 212.652 276.997 212.436 276.629C212.228 276.261 211.924 276.077 211.524 276.077C211.3 276.077 211.08 276.153 210.864 276.305C210.656 276.457 210.5 276.645 210.396 276.869V279.245C210.5 279.469 210.656 279.661 210.864 279.821C211.08 279.973 211.3 280.049 211.524 280.049ZM219.159 280.229C218.719 280.813 218.107 281.105 217.323 281.105C216.539 281.105 215.923 280.813 215.475 280.229C215.035 279.645 214.815 278.921 214.815 278.057C214.815 277.193 215.035 276.473 215.475 275.897C215.915 275.313 216.531 275.021 217.323 275.021C218.115 275.021 218.731 275.313 219.171 275.897C219.611 276.473 219.831 277.193 219.831 278.057C219.831 278.921 219.607 279.645 219.159 280.229ZM216.375 279.473C216.591 279.857 216.907 280.049 217.323 280.049C217.739 280.049 218.055 279.857 218.271 279.473C218.487 279.089 218.595 278.617 218.595 278.057C218.595 277.497 218.487 277.029 218.271 276.653C218.055 276.269 217.739 276.077 217.323 276.077C216.907 276.077 216.591 276.269 216.375 276.653C216.159 277.029 216.051 277.497 216.051 278.057C216.051 278.617 216.159 279.089 216.375 279.473ZM220.47 282.437V280.013C220.742 279.957 220.942 279.817 221.07 279.593C221.198 279.369 221.294 278.905 221.358 278.201L221.622 275.165H225.366V279.917H225.99V282.437H224.79V280.961H221.658V282.437H220.47ZM222.714 276.209L222.558 278.297C222.502 279.017 222.286 279.557 221.91 279.917H224.178V276.209H222.714Z" fill="#444444"/>
<circle cx="223.672" cy="369.496" r="4" fill="#444444"/>
<path d="M206.953 384.476C206.385 385.252 205.605 385.64 204.613 385.64C203.621 385.64 202.837 385.252 202.261 384.476C201.693 383.7 201.409 382.708 201.409 381.5C201.409 380.292 201.693 379.3 202.261 378.524C202.837 377.748 203.621 377.36 204.613 377.36C205.605 377.36 206.385 377.748 206.953 378.524C207.529 379.3 207.817 380.292 207.817 381.5C207.817 382.708 207.529 383.7 206.953 384.476ZM204.613 384.452C205.189 384.452 205.641 384.176 205.969 383.624C206.297 383.064 206.461 382.356 206.461 381.5C206.461 380.636 206.297 379.928 205.969 379.376C205.641 378.816 205.189 378.536 204.613 378.536C204.029 378.536 203.573 378.812 203.245 379.364C202.925 379.916 202.765 380.628 202.765 381.5C202.765 382.364 202.925 383.072 203.245 383.624C203.573 384.176 204.029 384.452 204.613 384.452ZM213.221 384.812C212.845 385.364 212.333 385.64 211.685 385.64C211.037 385.64 210.541 385.332 210.197 384.716V387.704H208.997V379.7H210.197V380.468C210.365 380.18 210.581 379.956 210.845 379.796C211.109 379.636 211.389 379.556 211.685 379.556C212.341 379.556 212.857 379.828 213.233 380.372C213.609 380.916 213.797 381.656 213.797 382.592C213.797 383.52 213.605 384.26 213.221 384.812ZM211.325 384.584C211.725 384.584 212.029 384.4 212.237 384.032C212.453 383.656 212.561 383.176 212.561 382.592C212.561 382.008 212.453 381.532 212.237 381.164C212.029 380.796 211.725 380.612 211.325 380.612C211.101 380.612 210.881 380.688 210.665 380.84C210.457 380.992 210.301 381.18 210.197 381.404V383.78C210.301 384.004 210.457 384.196 210.665 384.356C210.881 384.508 211.101 384.584 211.325 384.584ZM217.219 385.64C216.427 385.64 215.795 385.36 215.323 384.8C214.851 384.24 214.615 383.504 214.615 382.592C214.615 381.728 214.839 381.008 215.287 380.432C215.743 379.848 216.347 379.556 217.099 379.556C217.859 379.556 218.451 379.844 218.875 380.42C219.299 380.996 219.511 381.736 219.511 382.64V382.988H215.827C215.851 383.484 215.995 383.888 216.259 384.2C216.523 384.504 216.883 384.656 217.339 384.656C217.859 384.656 218.295 384.448 218.647 384.032L219.223 384.752C218.703 385.344 218.035 385.64 217.219 385.64ZM218.347 382.136C218.339 381.712 218.231 381.34 218.023 381.02C217.823 380.692 217.511 380.528 217.087 380.528C216.679 380.528 216.371 380.692 216.163 381.02C215.955 381.348 215.839 381.72 215.815 382.136H218.347ZM221.787 385.496H220.587V379.7H221.787V381.98H223.803V379.7H224.991V385.496H223.803V383.024H221.787V385.496ZM228.619 384.584C229.035 384.584 229.351 384.392 229.567 384.008C229.783 383.616 229.891 383.136 229.891 382.568C229.891 382.024 229.783 381.564 229.567 381.188C229.351 380.804 229.035 380.612 228.619 380.612C228.211 380.612 227.899 380.804 227.683 381.188C227.467 381.564 227.359 382.024 227.359 382.568C227.359 383.136 227.467 383.616 227.683 384.008C227.899 384.392 228.211 384.584 228.619 384.584ZM228.619 385.64C227.819 385.64 227.203 385.336 226.771 384.728C226.339 384.112 226.123 383.312 226.123 382.328C226.123 380.848 226.303 379.804 226.663 379.196C227.031 378.588 227.687 378.204 228.631 378.044C229.055 377.972 229.347 377.896 229.507 377.816C229.675 377.736 229.759 377.628 229.759 377.492H230.947C230.947 377.756 230.883 377.988 230.755 378.188C230.627 378.38 230.447 378.532 230.215 378.644C229.991 378.756 229.783 378.84 229.591 378.896C229.399 378.952 229.179 379 228.931 379.04C227.827 379.216 227.227 379.692 227.131 380.468C227.299 380.188 227.531 379.968 227.827 379.808C228.123 379.64 228.455 379.556 228.823 379.556C229.535 379.556 230.095 379.848 230.503 380.432C230.919 381.016 231.127 381.732 231.127 382.58C231.127 383.436 230.907 384.16 230.467 384.752C230.027 385.344 229.411 385.64 228.619 385.64ZM232.09 387.764L232.27 386.708C232.374 386.764 232.502 386.792 232.654 386.792C232.974 386.792 233.194 386.632 233.314 386.312L233.554 385.616L231.61 379.7H232.882L234.166 384.056L235.462 379.7H236.734L234.442 386.588C234.29 387.052 234.074 387.376 233.794 387.56C233.522 387.752 233.17 387.848 232.738 387.848C232.49 387.848 232.274 387.82 232.09 387.764ZM241.674 384.812C241.298 385.364 240.786 385.64 240.138 385.64C239.49 385.64 238.994 385.332 238.65 384.716V387.704H237.45V379.7H238.65V380.468C238.818 380.18 239.034 379.956 239.298 379.796C239.562 379.636 239.842 379.556 240.138 379.556C240.794 379.556 241.31 379.828 241.686 380.372C242.062 380.916 242.25 381.656 242.25 382.592C242.25 383.52 242.058 384.26 241.674 384.812ZM239.778 384.584C240.178 384.584 240.482 384.4 240.69 384.032C240.906 383.656 241.014 383.176 241.014 382.592C241.014 382.008 240.906 381.532 240.69 381.164C240.482 380.796 240.178 380.612 239.778 380.612C239.554 380.612 239.334 380.688 239.118 380.84C238.91 380.992 238.754 381.18 238.65 381.404V383.78C238.754 384.004 238.91 384.196 239.118 384.356C239.334 384.508 239.554 384.584 239.778 384.584ZM246.956 379.7V380.744H244.556V385.496H243.356V379.7H246.956Z" fill="#444444"/>
<circle cx="257.672" cy="341.099" r="4" fill="#444444"/>
<path d="M249.596 357.243C249.028 357.243 248.564 357.091 248.204 356.787L248.612 355.695C248.868 355.927 249.156 356.043 249.476 356.043C249.7 356.043 249.884 355.983 250.028 355.863C250.172 355.743 250.308 355.547 250.436 355.275L250.568 354.891L248.144 349.095H249.62L251.288 353.343L252.956 349.095H254.42L251.636 355.803C251.428 356.299 251.164 356.663 250.844 356.895C250.524 357.127 250.108 357.243 249.596 357.243ZM256.334 351.159C256.886 351.159 257.322 351.463 257.642 352.071V349.095H258.842V352.071C259.162 351.463 259.598 351.159 260.15 351.159C260.726 351.159 261.178 351.431 261.506 351.975C261.842 352.519 262.01 353.259 262.01 354.195C262.01 355.123 261.842 355.863 261.506 356.415C261.178 356.967 260.726 357.243 260.15 357.243C259.59 357.243 259.154 356.935 258.842 356.319V359.307H257.642V356.319C257.498 356.615 257.31 356.843 257.078 357.003C256.846 357.163 256.598 357.243 256.334 357.243C255.758 357.243 255.302 356.971 254.966 356.427C254.638 355.875 254.474 355.131 254.474 354.195C254.474 353.259 254.638 352.519 254.966 351.975C255.302 351.431 255.758 351.159 256.334 351.159ZM256.718 352.215C256.39 352.215 256.138 352.399 255.962 352.767C255.786 353.135 255.698 353.611 255.698 354.195C255.698 354.771 255.79 355.247 255.974 355.623C256.158 355.999 256.414 356.187 256.742 356.187C256.918 356.187 257.09 356.111 257.258 355.959C257.426 355.799 257.554 355.607 257.642 355.383V353.007C257.554 352.783 257.422 352.595 257.246 352.443C257.078 352.291 256.902 352.215 256.718 352.215ZM259.742 356.187C260.07 356.187 260.326 355.999 260.51 355.623C260.694 355.247 260.786 354.771 260.786 354.195C260.786 353.611 260.698 353.135 260.522 352.767C260.346 352.399 260.094 352.215 259.766 352.215C259.582 352.215 259.402 352.291 259.226 352.443C259.058 352.595 258.93 352.783 258.842 353.007V355.383C258.93 355.607 259.058 355.799 259.226 355.959C259.394 356.111 259.566 356.187 259.742 356.187ZM267.466 357.099H266.278V356.511C265.926 356.999 265.418 357.243 264.754 357.243C264.258 357.243 263.838 357.071 263.494 356.727C263.15 356.375 262.978 355.903 262.978 355.311C262.978 354.719 263.15 354.259 263.494 353.931C263.838 353.595 264.258 353.427 264.754 353.427C265.434 353.427 265.942 353.659 266.278 354.123V353.283C266.278 352.931 266.178 352.659 265.978 352.467C265.786 352.275 265.51 352.179 265.15 352.179C264.622 352.179 264.142 352.399 263.71 352.839L263.242 351.999C263.802 351.439 264.51 351.159 265.366 351.159C266.006 351.159 266.514 351.323 266.89 351.651C267.274 351.971 267.466 352.467 267.466 353.139V357.099ZM265.186 356.415C265.666 356.415 266.03 356.203 266.278 355.779V354.903C266.166 354.703 266.01 354.547 265.81 354.435C265.61 354.315 265.402 354.255 265.186 354.255C264.882 354.255 264.638 354.355 264.454 354.555C264.27 354.755 264.178 355.015 264.178 355.335C264.178 355.655 264.27 355.915 264.454 356.115C264.638 356.315 264.882 356.415 265.186 356.415Z" fill="#444444"/>
</svg>
