<svg width="1190" height="605" viewBox="0 0 1190 605" fill="none" xmlns="http://www.w3.org/2000/svg">
<circle cx="97.5" cy="250.329" r="4" fill="#444444"/>
<path d="M80.3333 266.329H77.2133V258.325H80.2373C80.8933 258.325 81.4013 258.517 81.7613 258.901C82.1213 259.285 82.3013 259.773 82.3013 260.365C82.3013 260.853 82.1813 261.257 81.9413 261.577C81.7093 261.889 81.4093 262.097 81.0413 262.201C81.4333 262.257 81.7613 262.477 82.0253 262.861C82.2973 263.237 82.4333 263.673 82.4333 264.169C82.4333 264.817 82.2533 265.341 81.8933 265.741C81.5333 266.133 81.0133 266.329 80.3333 266.329ZM79.9493 261.661C80.2773 261.661 80.5213 261.565 80.6813 261.373C80.8493 261.173 80.9333 260.909 80.9333 260.581C80.9333 260.253 80.8493 259.989 80.6813 259.789C80.5133 259.589 80.2693 259.489 79.9493 259.489H78.5453V261.661H79.9493ZM79.9973 265.153C80.3493 265.153 80.6133 265.053 80.7893 264.853C80.9733 264.645 81.0653 264.357 81.0653 263.989C81.0653 263.653 80.9733 263.377 80.7893 263.161C80.6053 262.945 80.3413 262.837 79.9973 262.837H78.5453V265.153H79.9973ZM87.6898 265.597C87.2498 266.181 86.6378 266.473 85.8538 266.473C85.0698 266.473 84.4538 266.181 84.0058 265.597C83.5658 265.013 83.3458 264.289 83.3458 263.425C83.3458 262.561 83.5658 261.841 84.0058 261.265C84.4458 260.681 85.0618 260.389 85.8538 260.389C86.6458 260.389 87.2618 260.681 87.7018 261.265C88.1418 261.841 88.3618 262.561 88.3618 263.425C88.3618 264.289 88.1378 265.013 87.6898 265.597ZM84.9058 264.841C85.1218 265.225 85.4378 265.417 85.8538 265.417C86.2698 265.417 86.5858 265.225 86.8018 264.841C87.0178 264.457 87.1258 263.985 87.1258 263.425C87.1258 262.865 87.0178 262.397 86.8018 262.021C86.5858 261.637 86.2698 261.445 85.8538 261.445C85.4378 261.445 85.1218 261.637 84.9058 262.021C84.6898 262.397 84.5818 262.865 84.5818 263.425C84.5818 263.985 84.6898 264.457 84.9058 264.841ZM93.7172 265.645C93.3412 266.197 92.8292 266.473 92.1812 266.473C91.5332 266.473 91.0372 266.165 90.6932 265.549V268.537H89.4932V260.533H90.6932V261.301C90.8612 261.013 91.0772 260.789 91.3412 260.629C91.6052 260.469 91.8852 260.389 92.1812 260.389C92.8372 260.389 93.3532 260.661 93.7292 261.205C94.1052 261.749 94.2932 262.489 94.2932 263.425C94.2932 264.353 94.1012 265.093 93.7172 265.645ZM91.8212 265.417C92.2212 265.417 92.5252 265.233 92.7332 264.865C92.9492 264.489 93.0572 264.009 93.0572 263.425C93.0572 262.841 92.9492 262.365 92.7332 261.997C92.5252 261.629 92.2212 261.445 91.8212 261.445C91.5972 261.445 91.3772 261.521 91.1612 261.673C90.9532 261.825 90.7972 262.013 90.6932 262.237V264.613C90.7972 264.837 90.9532 265.029 91.1612 265.189C91.3772 265.341 91.5972 265.417 91.8212 265.417ZM99.4554 265.597C99.0154 266.181 98.4034 266.473 97.6194 266.473C96.8354 266.473 96.2194 266.181 95.7714 265.597C95.3314 265.013 95.1114 264.289 95.1114 263.425C95.1114 262.561 95.3314 261.841 95.7714 261.265C96.2114 260.681 96.8274 260.389 97.6194 260.389C98.4114 260.389 99.0274 260.681 99.4674 261.265C99.9074 261.841 100.127 262.561 100.127 263.425C100.127 264.289 99.9034 265.013 99.4554 265.597ZM96.6714 264.841C96.8874 265.225 97.2034 265.417 97.6194 265.417C98.0354 265.417 98.3514 265.225 98.5674 264.841C98.7834 264.457 98.8914 263.985 98.8914 263.425C98.8914 262.865 98.7834 262.397 98.5674 262.021C98.3514 261.637 98.0354 261.445 97.6194 261.445C97.2034 261.445 96.8874 261.637 96.6714 262.021C96.4554 262.397 96.3474 262.865 96.3474 263.425C96.3474 263.985 96.4554 264.457 96.6714 264.841ZM102.459 266.329H101.259V260.533H102.459V262.813H104.475V260.533H105.663V266.329H104.475V263.857H102.459V266.329ZM109.399 266.473C108.607 266.473 107.975 266.193 107.503 265.633C107.031 265.073 106.795 264.337 106.795 263.425C106.795 262.561 107.019 261.841 107.467 261.265C107.923 260.681 108.527 260.389 109.279 260.389C110.039 260.389 110.631 260.677 111.055 261.253C111.479 261.829 111.691 262.569 111.691 263.473V263.821H108.007C108.031 264.317 108.175 264.721 108.439 265.033C108.703 265.337 109.063 265.489 109.519 265.489C110.039 265.489 110.475 265.281 110.827 264.865L111.403 265.585C110.883 266.177 110.215 266.473 109.399 266.473ZM110.527 262.969C110.519 262.545 110.411 262.173 110.203 261.853C110.003 261.525 109.691 261.361 109.267 261.361C108.859 261.361 108.551 261.525 108.343 261.853C108.135 262.181 108.019 262.553 107.995 262.969H110.527ZM113.559 266.329H112.155L114.111 263.137L112.191 260.533H113.583L115.179 262.765V260.533H116.379V262.765L117.975 260.533H119.367L117.447 263.137L119.403 266.329H117.999L116.631 263.905L116.379 264.241V266.329H115.179V264.241L114.927 263.905L113.559 266.329Z" fill="#444444"/>
<circle cx="183" cy="201.323" r="4" fill="#444444"/>
<path d="M159.206 217.323H157.73L159.278 214.071C158.87 213.959 158.518 213.715 158.222 213.339C157.934 212.955 157.79 212.439 157.79 211.791C157.79 211.055 158.006 210.459 158.438 210.003C158.87 209.547 159.434 209.319 160.13 209.319H162.878V217.323H161.558V214.299H160.574L159.206 217.323ZM160.31 213.123H161.558V210.483H160.31C159.958 210.483 159.678 210.603 159.47 210.843C159.262 211.083 159.158 211.403 159.158 211.803C159.158 212.203 159.262 212.523 159.47 212.763C159.678 213.003 159.958 213.123 160.31 213.123ZM168.58 216.639C168.204 217.191 167.692 217.467 167.044 217.467C166.396 217.467 165.9 217.159 165.556 216.543V219.531H164.356V211.527H165.556V212.295C165.724 212.007 165.94 211.783 166.204 211.623C166.468 211.463 166.748 211.383 167.044 211.383C167.7 211.383 168.216 211.655 168.592 212.199C168.968 212.743 169.156 213.483 169.156 214.419C169.156 215.347 168.964 216.087 168.58 216.639ZM166.684 216.411C167.084 216.411 167.388 216.227 167.596 215.859C167.812 215.483 167.92 215.003 167.92 214.419C167.92 213.835 167.812 213.359 167.596 212.991C167.388 212.623 167.084 212.439 166.684 212.439C166.46 212.439 166.24 212.515 166.024 212.667C165.816 212.819 165.66 213.007 165.556 213.231V215.607C165.66 215.831 165.816 216.023 166.024 216.183C166.24 216.335 166.46 216.411 166.684 216.411ZM174.319 216.591C173.879 217.175 173.267 217.467 172.483 217.467C171.699 217.467 171.083 217.175 170.635 216.591C170.195 216.007 169.975 215.283 169.975 214.419C169.975 213.555 170.195 212.835 170.635 212.259C171.075 211.675 171.691 211.383 172.483 211.383C173.275 211.383 173.891 211.675 174.331 212.259C174.771 212.835 174.991 213.555 174.991 214.419C174.991 215.283 174.767 216.007 174.319 216.591ZM171.535 215.835C171.751 216.219 172.067 216.411 172.483 216.411C172.899 216.411 173.215 216.219 173.431 215.835C173.647 215.451 173.755 214.979 173.755 214.419C173.755 213.859 173.647 213.391 173.431 213.015C173.215 212.631 172.899 212.439 172.483 212.439C172.067 212.439 171.751 212.631 171.535 213.015C171.319 213.391 171.211 213.859 171.211 214.419C171.211 214.979 171.319 215.451 171.535 215.835ZM180.142 216.687C179.726 217.207 179.138 217.467 178.378 217.467C177.618 217.467 177.002 217.183 176.53 216.615C176.066 216.039 175.834 215.307 175.834 214.419C175.834 213.531 176.066 212.803 176.53 212.235C176.994 211.667 177.61 211.383 178.378 211.383C179.138 211.383 179.726 211.643 180.142 212.163L179.53 212.979C179.25 212.619 178.906 212.439 178.498 212.439C178.058 212.439 177.71 212.627 177.454 213.003C177.198 213.379 177.07 213.851 177.07 214.419C177.07 214.995 177.198 215.471 177.454 215.847C177.71 216.223 178.058 216.411 178.498 216.411C178.898 216.411 179.242 216.231 179.53 215.871L180.142 216.687ZM180.611 217.467V216.447C180.859 216.447 181.051 216.315 181.187 216.051C181.331 215.787 181.435 215.291 181.499 214.563L181.763 211.527H185.507V217.323H184.319V212.571H182.855L182.699 214.659C182.619 215.683 182.407 216.407 182.063 216.831C181.719 217.255 181.235 217.467 180.611 217.467ZM191.115 217.323H189.927V216.735C189.575 217.223 189.067 217.467 188.403 217.467C187.907 217.467 187.487 217.295 187.143 216.951C186.799 216.599 186.627 216.127 186.627 215.535C186.627 214.943 186.799 214.483 187.143 214.155C187.487 213.819 187.907 213.651 188.403 213.651C189.083 213.651 189.591 213.883 189.927 214.347V213.507C189.927 213.155 189.827 212.883 189.627 212.691C189.435 212.499 189.159 212.403 188.799 212.403C188.271 212.403 187.791 212.623 187.359 213.063L186.891 212.223C187.451 211.663 188.159 211.383 189.015 211.383C189.655 211.383 190.163 211.547 190.539 211.875C190.923 212.195 191.115 212.691 191.115 213.363V217.323ZM188.835 216.639C189.315 216.639 189.679 216.427 189.927 216.003V215.127C189.815 214.927 189.659 214.771 189.459 214.659C189.259 214.539 189.051 214.479 188.835 214.479C188.531 214.479 188.287 214.579 188.103 214.779C187.919 214.979 187.827 215.239 187.827 215.559C187.827 215.879 187.919 216.139 188.103 216.339C188.287 216.539 188.531 216.639 188.835 216.639ZM195.276 217.323H192.528V211.527H195.204C195.772 211.527 196.204 211.667 196.5 211.947C196.804 212.219 196.956 212.571 196.956 213.003C196.956 213.339 196.864 213.623 196.68 213.855C196.504 214.079 196.264 214.235 195.96 214.323C196.28 214.395 196.544 214.567 196.752 214.839C196.96 215.103 197.064 215.407 197.064 215.751C197.064 216.223 196.912 216.603 196.608 216.891C196.312 217.179 195.868 217.323 195.276 217.323ZM195.024 216.315C195.568 216.315 195.84 216.075 195.84 215.595C195.84 215.387 195.768 215.211 195.624 215.067C195.488 214.923 195.288 214.851 195.024 214.851H193.728V216.315H195.024ZM194.976 213.855C195.472 213.855 195.72 213.635 195.72 213.195C195.72 212.995 195.656 212.835 195.528 212.715C195.408 212.587 195.224 212.523 194.976 212.523H193.728V213.855H194.976ZM197.884 217.467V216.447C198.132 216.447 198.324 216.315 198.46 216.051C198.604 215.787 198.708 215.291 198.772 214.563L199.036 211.527H202.78V217.323H201.592V212.571H200.128L199.972 214.659C199.892 215.683 199.68 216.407 199.336 216.831C198.992 217.255 198.508 217.467 197.884 217.467ZM204.2 211.527H205.4V213.651H206.684C207.316 213.651 207.796 213.827 208.124 214.179C208.46 214.531 208.628 214.971 208.628 215.499C208.628 216.019 208.456 216.455 208.112 216.807C207.776 217.151 207.3 217.323 206.684 217.323H204.2V211.527ZM206.54 214.659H205.4V216.315H206.54C206.812 216.315 207.024 216.239 207.176 216.087C207.328 215.935 207.404 215.735 207.404 215.487C207.404 215.247 207.328 215.051 207.176 214.899C207.024 214.739 206.812 214.659 206.54 214.659Z" fill="#444444"/>
<circle cx="94" cy="281" r="4" fill="#444444"/>
<path d="M72.0414 288.996H76.6014V290.16H73.3734V292.02H74.7654C75.5174 292.02 76.0974 292.26 76.5054 292.74C76.9214 293.212 77.1294 293.8 77.1294 294.504C77.1294 295.216 76.9214 295.812 76.5054 296.292C76.0974 296.764 75.5174 297 74.7654 297H72.0414V288.996ZM74.6094 293.184H73.3734V295.824H74.6094C74.9614 295.824 75.2414 295.704 75.4494 295.464C75.6654 295.224 75.7734 294.904 75.7734 294.504C75.7734 294.112 75.6654 293.796 75.4494 293.556C75.2414 293.308 74.9614 293.184 74.6094 293.184ZM80.4498 297.144C79.6578 297.144 79.0258 296.864 78.5538 296.304C78.0818 295.744 77.8458 295.008 77.8458 294.096C77.8458 293.232 78.0698 292.512 78.5178 291.936C78.9738 291.352 79.5778 291.06 80.3298 291.06C81.0898 291.06 81.6818 291.348 82.1058 291.924C82.5298 292.5 82.7418 293.24 82.7418 294.144V294.492H79.0578C79.0818 294.988 79.2258 295.392 79.4898 295.704C79.7538 296.008 80.1138 296.16 80.5698 296.16C81.0898 296.16 81.5258 295.952 81.8778 295.536L82.4538 296.256C81.9338 296.848 81.2658 297.144 80.4498 297.144ZM81.5778 293.64C81.5698 293.216 81.4618 292.844 81.2538 292.524C81.0538 292.196 80.7418 292.032 80.3178 292.032C79.9098 292.032 79.6018 292.196 79.3938 292.524C79.1858 292.852 79.0698 293.224 79.0458 293.64H81.5778ZM83.3254 297.144V296.124C83.5734 296.124 83.7654 295.992 83.9014 295.728C84.0454 295.464 84.1494 294.968 84.2134 294.24L84.4774 291.204H88.2214V297H87.0334V292.248H85.5694L85.4134 294.336C85.3334 295.36 85.1214 296.084 84.7774 296.508C84.4334 296.932 83.9494 297.144 83.3254 297.144ZM93.2416 291.204V292.248H90.8416V297H89.6416V291.204H93.2416ZM98.221 296.268C97.781 296.852 97.169 297.144 96.385 297.144C95.601 297.144 94.985 296.852 94.537 296.268C94.097 295.684 93.877 294.96 93.877 294.096C93.877 293.232 94.097 292.512 94.537 291.936C94.977 291.352 95.593 291.06 96.385 291.06C97.177 291.06 97.793 291.352 98.233 291.936C98.673 292.512 98.893 293.232 98.893 294.096C98.893 294.96 98.669 295.684 98.221 296.268ZM95.437 295.512C95.653 295.896 95.969 296.088 96.385 296.088C96.801 296.088 97.117 295.896 97.333 295.512C97.549 295.128 97.657 294.656 97.657 294.096C97.657 293.536 97.549 293.068 97.333 292.692C97.117 292.308 96.801 292.116 96.385 292.116C95.969 292.116 95.653 292.308 95.437 292.692C95.221 293.068 95.113 293.536 95.113 294.096C95.113 294.656 95.221 295.128 95.437 295.512ZM104.248 296.316C103.872 296.868 103.36 297.144 102.712 297.144C102.064 297.144 101.568 296.836 101.224 296.22V299.208H100.024V291.204H101.224V291.972C101.392 291.684 101.608 291.46 101.872 291.3C102.136 291.14 102.416 291.06 102.712 291.06C103.368 291.06 103.884 291.332 104.26 291.876C104.636 292.42 104.824 293.16 104.824 294.096C104.824 295.024 104.632 295.764 104.248 296.316ZM102.352 296.088C102.752 296.088 103.056 295.904 103.264 295.536C103.48 295.16 103.588 294.68 103.588 294.096C103.588 293.512 103.48 293.036 103.264 292.668C103.056 292.3 102.752 292.116 102.352 292.116C102.128 292.116 101.908 292.192 101.692 292.344C101.484 292.496 101.328 292.684 101.224 292.908V295.284C101.328 295.508 101.484 295.7 101.692 295.86C101.908 296.012 102.128 296.088 102.352 296.088ZM109.987 296.268C109.547 296.852 108.935 297.144 108.151 297.144C107.367 297.144 106.751 296.852 106.303 296.268C105.863 295.684 105.643 294.96 105.643 294.096C105.643 293.232 105.863 292.512 106.303 291.936C106.743 291.352 107.359 291.06 108.151 291.06C108.943 291.06 109.559 291.352 109.999 291.936C110.439 292.512 110.659 293.232 110.659 294.096C110.659 294.96 110.435 295.684 109.987 296.268ZM107.203 295.512C107.419 295.896 107.735 296.088 108.151 296.088C108.567 296.088 108.883 295.896 109.099 295.512C109.315 295.128 109.423 294.656 109.423 294.096C109.423 293.536 109.315 293.068 109.099 292.692C108.883 292.308 108.567 292.116 108.151 292.116C107.735 292.116 107.419 292.308 107.203 292.692C106.987 293.068 106.879 293.536 106.879 294.096C106.879 294.656 106.987 295.128 107.203 295.512ZM111.298 298.476V296.052C111.57 295.996 111.77 295.856 111.898 295.632C112.026 295.408 112.122 294.944 112.186 294.24L112.45 291.204H116.194V295.956H116.818V298.476H115.618V297H112.486V298.476H111.298ZM113.542 292.248L113.386 294.336C113.33 295.056 113.114 295.596 112.738 295.956H115.006V292.248H113.542Z" fill="#444444"/>
</svg>
