<svg width="1190" height="605" viewBox="0 0 1190 605" fill="none" xmlns="http://www.w3.org/2000/svg">
<circle cx="145.5" cy="228.823" r="4" fill="#444444"/>
<path d="M133.731 245.823H132.191V239.383L129.923 245.823H129.321L127.081 239.383V245.823H125.527V236.485H127.627L129.629 242.169L131.645 236.485H133.731V245.823ZM140.169 244.969C139.656 245.65 138.942 245.991 138.027 245.991C137.113 245.991 136.394 245.65 135.871 244.969C135.358 244.287 135.101 243.443 135.101 242.435C135.101 241.427 135.358 240.587 135.871 239.915C136.385 239.233 137.103 238.893 138.027 238.893C138.951 238.893 139.67 239.233 140.183 239.915C140.697 240.587 140.953 241.427 140.953 242.435C140.953 243.443 140.692 244.287 140.169 244.969ZM136.921 244.087C137.173 244.535 137.542 244.759 138.027 244.759C138.513 244.759 138.881 244.535 139.133 244.087C139.385 243.639 139.511 243.088 139.511 242.435C139.511 241.781 139.385 241.235 139.133 240.797C138.881 240.349 138.513 240.125 138.027 240.125C137.542 240.125 137.173 240.349 136.921 240.797C136.669 241.235 136.543 241.781 136.543 242.435C136.543 243.088 136.669 243.639 136.921 244.087ZM146.963 245.081C146.478 245.687 145.792 245.991 144.905 245.991C144.019 245.991 143.3 245.659 142.749 244.997C142.208 244.325 141.937 243.471 141.937 242.435C141.937 241.399 142.208 240.549 142.749 239.887C143.291 239.224 144.009 238.893 144.905 238.893C145.792 238.893 146.478 239.196 146.963 239.803L146.249 240.755C145.923 240.335 145.521 240.125 145.045 240.125C144.532 240.125 144.126 240.344 143.827 240.783C143.529 241.221 143.379 241.772 143.379 242.435C143.379 243.107 143.529 243.662 143.827 244.101C144.126 244.539 144.532 244.759 145.045 244.759C145.512 244.759 145.913 244.549 146.249 244.129L146.963 245.081ZM153.53 245.823H151.892L150.296 242.995L149.484 244.087V245.823H148.084V239.061H149.484V242.379L151.864 239.061H153.488L151.248 242.099L153.53 245.823ZM157.675 245.823H154.469V239.061H157.591C158.253 239.061 158.757 239.224 159.103 239.551C159.457 239.868 159.635 240.279 159.635 240.783C159.635 241.175 159.527 241.506 159.313 241.777C159.107 242.038 158.827 242.22 158.473 242.323C158.846 242.407 159.154 242.607 159.397 242.925C159.639 243.233 159.761 243.587 159.761 243.989C159.761 244.539 159.583 244.983 159.229 245.319C158.883 245.655 158.365 245.823 157.675 245.823ZM157.381 244.647C158.015 244.647 158.333 244.367 158.333 243.807C158.333 243.564 158.249 243.359 158.081 243.191C157.922 243.023 157.689 242.939 157.381 242.939H155.869V244.647H157.381ZM157.325 241.777C157.903 241.777 158.193 241.52 158.193 241.007C158.193 240.773 158.118 240.587 157.969 240.447C157.829 240.297 157.614 240.223 157.325 240.223H155.869V241.777H157.325ZM166.177 245.823H164.791V245.137C164.38 245.706 163.788 245.991 163.013 245.991C162.434 245.991 161.944 245.79 161.543 245.389C161.142 244.978 160.941 244.427 160.941 243.737C160.941 243.046 161.142 242.509 161.543 242.127C161.944 241.735 162.434 241.539 163.013 241.539C163.806 241.539 164.399 241.809 164.791 242.351V241.371C164.791 240.96 164.674 240.643 164.441 240.419C164.217 240.195 163.895 240.083 163.475 240.083C162.859 240.083 162.299 240.339 161.795 240.853L161.249 239.873C161.902 239.219 162.728 238.893 163.727 238.893C164.474 238.893 165.066 239.084 165.505 239.467C165.953 239.84 166.177 240.419 166.177 241.203V245.823ZM163.517 245.025C164.077 245.025 164.502 244.777 164.791 244.283V243.261C164.66 243.027 164.478 242.845 164.245 242.715C164.012 242.575 163.769 242.505 163.517 242.505C163.162 242.505 162.878 242.621 162.663 242.855C162.448 243.088 162.341 243.391 162.341 243.765C162.341 244.138 162.448 244.441 162.663 244.675C162.878 244.908 163.162 245.025 163.517 245.025Z" fill="#444444"/>
</svg>
