<svg width="1190" height="605" viewBox="0 0 1190 605" fill="none" xmlns="http://www.w3.org/2000/svg">
<circle cx="324.898" cy="333.099" r="4" fill="#444444"/>
<path d="M297.363 349.099H292.983V341.095H297.363V342.259H294.315V344.431H297.279V345.607H294.315V347.923H297.363V349.099ZM303.251 349.099H301.847L300.479 346.675L299.783 347.611V349.099H298.583V343.303H299.783V346.147L301.823 343.303H303.215L301.295 345.907L303.251 349.099ZM308.244 349.099H307.056V348.511C306.704 348.999 306.196 349.243 305.532 349.243C305.036 349.243 304.616 349.071 304.272 348.727C303.928 348.375 303.756 347.903 303.756 347.311C303.756 346.719 303.928 346.259 304.272 345.931C304.616 345.595 305.036 345.427 305.532 345.427C306.212 345.427 306.72 345.659 307.056 346.123V345.283C307.056 344.931 306.956 344.659 306.756 344.467C306.564 344.275 306.288 344.179 305.928 344.179C305.4 344.179 304.92 344.399 304.488 344.839L304.02 343.999C304.58 343.439 305.288 343.159 306.144 343.159C306.784 343.159 307.292 343.323 307.668 343.651C308.052 343.971 308.244 344.467 308.244 345.139V349.099ZM305.964 348.415C306.444 348.415 306.808 348.203 307.056 347.779V346.903C306.944 346.703 306.788 346.547 306.588 346.435C306.388 346.315 306.18 346.255 305.964 346.255C305.66 346.255 305.416 346.355 305.232 346.555C305.048 346.755 304.956 347.015 304.956 347.335C304.956 347.655 305.048 347.915 305.232 348.115C305.416 348.315 305.66 348.415 305.964 348.415ZM311.673 349.099H310.473V344.347H309.165V343.303H312.981V344.347H311.673V349.099ZM316.215 349.243C315.423 349.243 314.791 348.963 314.319 348.403C313.847 347.843 313.611 347.107 313.611 346.195C313.611 345.331 313.835 344.611 314.283 344.035C314.739 343.451 315.343 343.159 316.095 343.159C316.855 343.159 317.447 343.447 317.871 344.023C318.295 344.599 318.507 345.339 318.507 346.243V346.591H314.823C314.847 347.087 314.991 347.491 315.255 347.803C315.519 348.107 315.879 348.259 316.335 348.259C316.855 348.259 317.291 348.051 317.643 347.635L318.219 348.355C317.699 348.947 317.031 349.243 316.215 349.243ZM317.343 345.739C317.335 345.315 317.227 344.943 317.019 344.623C316.819 344.295 316.507 344.131 316.083 344.131C315.675 344.131 315.367 344.295 315.159 344.623C314.951 344.951 314.835 345.323 314.811 345.739H317.343ZM323.807 348.415C323.431 348.967 322.919 349.243 322.271 349.243C321.623 349.243 321.127 348.935 320.783 348.319V351.307H319.583V343.303H320.783V344.071C320.951 343.783 321.167 343.559 321.431 343.399C321.695 343.239 321.975 343.159 322.271 343.159C322.927 343.159 323.443 343.431 323.819 343.975C324.195 344.519 324.383 345.259 324.383 346.195C324.383 347.123 324.191 347.863 323.807 348.415ZM321.911 348.187C322.311 348.187 322.615 348.003 322.823 347.635C323.039 347.259 323.147 346.779 323.147 346.195C323.147 345.611 323.039 345.135 322.823 344.767C322.615 344.399 322.311 344.215 321.911 344.215C321.687 344.215 321.467 344.291 321.251 344.443C321.043 344.595 320.887 344.783 320.783 345.007V347.383C320.887 347.607 321.043 347.799 321.251 347.959C321.467 348.111 321.687 348.187 321.911 348.187ZM326.653 349.099H325.489V343.303H326.689V346.939L328.669 343.303H329.893V349.099H328.705V345.343L326.653 349.099ZM332.513 349.099H331.313V343.303H332.513V345.583H334.529V343.303H335.717V349.099H334.529V346.627H332.513V349.099ZM339.346 348.187C339.762 348.187 340.078 347.995 340.294 347.611C340.51 347.219 340.618 346.739 340.618 346.171C340.618 345.627 340.51 345.167 340.294 344.791C340.078 344.407 339.762 344.215 339.346 344.215C338.938 344.215 338.626 344.407 338.41 344.791C338.194 345.167 338.086 345.627 338.086 346.171C338.086 346.739 338.194 347.219 338.41 347.611C338.626 347.995 338.938 348.187 339.346 348.187ZM339.346 349.243C338.546 349.243 337.93 348.939 337.498 348.331C337.066 347.715 336.85 346.915 336.85 345.931C336.85 344.451 337.03 343.407 337.39 342.799C337.758 342.191 338.414 341.807 339.358 341.647C339.782 341.575 340.074 341.499 340.234 341.419C340.402 341.339 340.486 341.231 340.486 341.095H341.674C341.674 341.359 341.61 341.591 341.482 341.791C341.354 341.983 341.174 342.135 340.942 342.247C340.718 342.359 340.51 342.443 340.318 342.499C340.126 342.555 339.906 342.603 339.658 342.643C338.554 342.819 337.954 343.295 337.858 344.071C338.026 343.791 338.258 343.571 338.554 343.411C338.85 343.243 339.182 343.159 339.55 343.159C340.262 343.159 340.822 343.451 341.23 344.035C341.646 344.619 341.854 345.335 341.854 346.183C341.854 347.039 341.634 347.763 341.194 348.355C340.754 348.947 340.138 349.243 339.346 349.243ZM342.817 351.367L342.997 350.311C343.101 350.367 343.229 350.395 343.381 350.395C343.701 350.395 343.921 350.235 344.041 349.915L344.281 349.219L342.337 343.303H343.609L344.893 347.659L346.189 343.303H347.461L345.169 350.191C345.017 350.655 344.801 350.979 344.521 351.163C344.249 351.355 343.897 351.451 343.465 351.451C343.217 351.451 343.001 351.423 342.817 351.367ZM352.401 348.415C352.025 348.967 351.513 349.243 350.865 349.243C350.217 349.243 349.721 348.935 349.377 348.319V351.307H348.177V343.303H349.377V344.071C349.545 343.783 349.761 343.559 350.025 343.399C350.289 343.239 350.569 343.159 350.865 343.159C351.521 343.159 352.037 343.431 352.413 343.975C352.789 344.519 352.977 345.259 352.977 346.195C352.977 347.123 352.785 347.863 352.401 348.415ZM350.505 348.187C350.905 348.187 351.209 348.003 351.417 347.635C351.633 347.259 351.741 346.779 351.741 346.195C351.741 345.611 351.633 345.135 351.417 344.767C351.209 344.399 350.905 344.215 350.505 344.215C350.281 344.215 350.061 344.291 349.845 344.443C349.637 344.595 349.481 344.783 349.377 345.007V347.383C349.481 347.607 349.637 347.799 349.845 347.959C350.061 348.111 350.281 348.187 350.505 348.187ZM357.683 343.303V344.347H355.283V349.099H354.083V343.303H357.683Z" fill="#444444"/>
<circle cx="383.5" cy="304.099" r="4" fill="#444444"/>
<path d="M372.875 321.099H371.321V313.119H367.905V321.099H366.351V311.761H372.875V321.099ZM377.282 321.267C376.358 321.267 375.621 320.94 375.07 320.287C374.519 319.634 374.244 318.775 374.244 317.711C374.244 316.703 374.505 315.863 375.028 315.191C375.56 314.51 376.265 314.169 377.142 314.169C378.029 314.169 378.719 314.505 379.214 315.177C379.709 315.849 379.956 316.712 379.956 317.767V318.173H375.658C375.686 318.752 375.854 319.223 376.162 319.587C376.47 319.942 376.89 320.119 377.422 320.119C378.029 320.119 378.537 319.876 378.948 319.391L379.62 320.231C379.013 320.922 378.234 321.267 377.282 321.267ZM378.598 317.179C378.589 316.684 378.463 316.25 378.22 315.877C377.987 315.494 377.623 315.303 377.128 315.303C376.652 315.303 376.293 315.494 376.05 315.877C375.807 316.26 375.672 316.694 375.644 317.179H378.598ZM386.139 320.301C385.7 320.945 385.103 321.267 384.347 321.267C383.591 321.267 383.012 320.908 382.611 320.189V323.675H381.211V314.337H382.611V315.233C382.807 314.897 383.059 314.636 383.367 314.449C383.675 314.262 384.001 314.169 384.347 314.169C385.112 314.169 385.714 314.486 386.153 315.121C386.591 315.756 386.811 316.619 386.811 317.711C386.811 318.794 386.587 319.657 386.139 320.301ZM383.927 320.035C384.393 320.035 384.748 319.82 384.991 319.391C385.243 318.952 385.369 318.392 385.369 317.711C385.369 317.03 385.243 316.474 384.991 316.045C384.748 315.616 384.393 315.401 383.927 315.401C383.665 315.401 383.409 315.49 383.157 315.667C382.914 315.844 382.732 316.064 382.611 316.325V319.097C382.732 319.358 382.914 319.582 383.157 319.769C383.409 319.946 383.665 320.035 383.927 320.035ZM394.751 321.099H393.379V316.689L391.713 321.099H391.153L389.501 316.689V321.099H388.101V314.337H389.893L391.433 318.411L392.973 314.337H394.751V321.099ZM396.4 314.337H397.8V316.815H399.298C400.036 316.815 400.596 317.02 400.978 317.431C401.37 317.842 401.566 318.355 401.566 318.971C401.566 319.578 401.366 320.086 400.964 320.497C400.572 320.898 400.017 321.099 399.298 321.099H396.4V314.337ZM399.13 317.991H397.8V319.923H399.13C399.448 319.923 399.695 319.834 399.872 319.657C400.05 319.48 400.138 319.246 400.138 318.957C400.138 318.677 400.05 318.448 399.872 318.271C399.695 318.084 399.448 317.991 399.13 317.991Z" fill="#444444"/>
<circle cx="437" cy="316.099" r="4" fill="#444444"/>
<path d="M425.255 332.243C424.263 332.243 423.471 331.859 422.879 331.091C422.287 330.315 421.991 329.319 421.991 328.103C421.991 326.879 422.287 325.883 422.879 325.115C423.471 324.347 424.263 323.963 425.255 323.963C426.383 323.963 427.227 324.551 427.787 325.727L426.683 326.219C426.371 325.499 425.895 325.139 425.255 325.139C424.679 325.139 424.215 325.415 423.863 325.967C423.519 326.519 423.347 327.231 423.347 328.103C423.347 328.967 423.519 329.675 423.863 330.227C424.215 330.779 424.679 331.055 425.255 331.055C425.591 331.055 425.879 330.947 426.119 330.731C426.367 330.515 426.559 330.231 426.695 329.879L427.799 330.371C427.255 331.619 426.407 332.243 425.255 332.243ZM428.52 334.367L428.7 333.311C428.804 333.367 428.932 333.395 429.084 333.395C429.404 333.395 429.624 333.235 429.744 332.915L429.984 332.219L428.04 326.303H429.312L430.596 330.659L431.892 326.303H433.164L430.872 333.191C430.72 333.655 430.504 333.979 430.224 334.163C429.952 334.355 429.6 334.451 429.168 334.451C428.92 334.451 428.704 334.423 428.52 334.367ZM438.104 331.415C437.728 331.967 437.216 332.243 436.568 332.243C435.92 332.243 435.424 331.935 435.08 331.319V334.307H433.88V326.303H435.08V327.071C435.248 326.783 435.464 326.559 435.728 326.399C435.992 326.239 436.272 326.159 436.568 326.159C437.224 326.159 437.74 326.431 438.116 326.975C438.492 327.519 438.68 328.259 438.68 329.195C438.68 330.123 438.488 330.863 438.104 331.415ZM436.208 331.187C436.608 331.187 436.912 331.003 437.12 330.635C437.336 330.259 437.444 329.779 437.444 329.195C437.444 328.611 437.336 328.135 437.12 327.767C436.912 327.399 436.608 327.215 436.208 327.215C435.984 327.215 435.764 327.291 435.548 327.443C435.34 327.595 435.184 327.783 435.08 328.007V330.383C435.184 330.607 435.34 330.799 435.548 330.959C435.764 331.111 435.984 331.187 436.208 331.187ZM443.386 326.303V327.347H440.986V332.099H439.786V326.303H443.386ZM444.106 334.367L444.286 333.311C444.39 333.367 444.518 333.395 444.67 333.395C444.99 333.395 445.21 333.235 445.33 332.915L445.57 332.219L443.626 326.303H444.898L446.182 330.659L447.478 326.303H448.75L446.458 333.191C446.306 333.655 446.09 333.979 445.81 334.163C445.538 334.355 445.186 334.451 444.754 334.451C444.506 334.451 444.29 334.423 444.106 334.367ZM451.482 332.099H450.282V327.347H448.974V326.303H452.79V327.347H451.482V332.099Z" fill="#444444"/>
<circle cx="415.5" cy="367.496" r="4" fill="#444444"/>
<path d="M398 384.496H396.46V376.516H394.318V375.158H400.142V376.516H398V384.496ZM405.927 384.664C405.096 384.664 404.424 384.38 403.911 383.81C403.398 383.232 403.099 382.499 403.015 381.612H401.937V384.496H400.537V377.734H401.937V380.394H403.043C403.164 379.564 403.472 378.887 403.967 378.364C404.471 377.832 405.124 377.566 405.927 377.566C406.851 377.566 407.57 377.907 408.083 378.588C408.596 379.26 408.853 380.1 408.853 381.108C408.853 382.116 408.596 382.961 408.083 383.642C407.57 384.324 406.851 384.664 405.927 384.664ZM404.821 382.774C405.073 383.213 405.442 383.432 405.927 383.432C406.412 383.432 406.781 383.213 407.033 382.774C407.285 382.326 407.411 381.771 407.411 381.108C407.411 380.446 407.285 379.895 407.033 379.456C406.781 379.018 406.412 378.798 405.927 378.798C405.442 378.798 405.073 379.018 404.821 379.456C404.578 379.895 404.457 380.446 404.457 381.108C404.457 381.771 404.578 382.326 404.821 382.774ZM416.826 384.496H415.454V380.086L413.788 384.496H413.228L411.576 380.086V384.496H410.176V377.734H411.968L413.508 381.808L415.048 377.734H416.826V384.496ZM421.176 384.664C420.252 384.664 419.515 384.338 418.964 383.684C418.414 383.031 418.138 382.172 418.138 381.108C418.138 380.1 418.4 379.26 418.922 378.588C419.454 377.907 420.159 377.566 421.036 377.566C421.923 377.566 422.614 377.902 423.108 378.574C423.603 379.246 423.85 380.11 423.85 381.164V381.57H419.552C419.58 382.149 419.748 382.62 420.056 382.984C420.364 383.339 420.784 383.516 421.316 383.516C421.923 383.516 422.432 383.274 422.842 382.788L423.514 383.628C422.908 384.319 422.128 384.664 421.176 384.664ZM422.492 380.576C422.483 380.082 422.357 379.648 422.114 379.274C421.881 378.892 421.517 378.7 421.022 378.7C420.546 378.7 420.187 378.892 419.944 379.274C419.702 379.657 419.566 380.091 419.538 380.576H422.492ZM426.505 384.496H425.105V377.734H426.505V380.394H428.857V377.734H430.243V384.496H428.857V381.612H426.505V384.496ZM431.9 377.734H433.3V380.212H434.798C435.536 380.212 436.096 380.418 436.478 380.828C436.87 381.239 437.066 381.752 437.066 382.368C437.066 382.975 436.866 383.484 436.464 383.894C436.072 384.296 435.517 384.496 434.798 384.496H431.9V377.734ZM434.63 381.388H433.3V383.32H434.63C434.948 383.32 435.195 383.232 435.372 383.054C435.55 382.877 435.638 382.644 435.638 382.354C435.638 382.074 435.55 381.846 435.372 381.668C435.195 381.482 434.948 381.388 434.63 381.388Z" fill="#444444"/>
<circle cx="330.398" cy="294.099" r="4" fill="#444444"/>
<path d="M314.493 310.099H313.221V302.095H314.553V307.303L317.445 302.095H318.789V310.099H317.469V304.747L314.493 310.099ZM321.055 310.099H319.651L321.607 306.907L319.687 304.303H321.079L322.675 306.535V304.303H323.875V306.535L325.471 304.303H326.863L324.943 306.907L326.899 310.099H325.495L324.127 307.675L323.875 308.011V310.099H322.675V308.011L322.423 307.675L321.055 310.099ZM329.938 310.243C329.146 310.243 328.514 309.963 328.042 309.403C327.57 308.843 327.334 308.107 327.334 307.195C327.334 306.331 327.558 305.611 328.006 305.035C328.462 304.451 329.066 304.159 329.818 304.159C330.578 304.159 331.17 304.447 331.594 305.023C332.018 305.599 332.23 306.339 332.23 307.243V307.591H328.546C328.57 308.087 328.714 308.491 328.978 308.803C329.242 309.107 329.602 309.259 330.058 309.259C330.578 309.259 331.014 309.051 331.366 308.635L331.942 309.355C331.422 309.947 330.754 310.243 329.938 310.243ZM331.066 306.739C331.058 306.315 330.95 305.943 330.742 305.623C330.542 305.295 330.23 305.131 329.806 305.131C329.398 305.131 329.09 305.295 328.882 305.623C328.674 305.951 328.558 306.323 328.534 306.739H331.066ZM336.054 310.099H333.306V304.303H335.982C336.55 304.303 336.982 304.443 337.278 304.723C337.582 304.995 337.734 305.347 337.734 305.779C337.734 306.115 337.642 306.399 337.458 306.631C337.282 306.855 337.042 307.011 336.738 307.099C337.058 307.171 337.322 307.343 337.53 307.615C337.738 307.879 337.842 308.183 337.842 308.527C337.842 308.999 337.69 309.379 337.386 309.667C337.09 309.955 336.646 310.099 336.054 310.099ZM335.802 309.091C336.346 309.091 336.618 308.851 336.618 308.371C336.618 308.163 336.546 307.987 336.402 307.843C336.266 307.699 336.066 307.627 335.802 307.627H334.506V309.091H335.802ZM335.754 306.631C336.25 306.631 336.498 306.411 336.498 305.971C336.498 305.771 336.434 305.611 336.306 305.491C336.186 305.363 336.002 305.299 335.754 305.299H334.506V306.631H335.754ZM343.173 309.463C342.757 309.983 342.169 310.243 341.409 310.243C340.649 310.243 340.033 309.959 339.561 309.391C339.097 308.815 338.865 308.083 338.865 307.195C338.865 306.307 339.097 305.579 339.561 305.011C340.025 304.443 340.641 304.159 341.409 304.159C342.169 304.159 342.757 304.419 343.173 304.939L342.561 305.755C342.281 305.395 341.937 305.215 341.529 305.215C341.089 305.215 340.741 305.403 340.485 305.779C340.229 306.155 340.101 306.627 340.101 307.195C340.101 307.771 340.229 308.247 340.485 308.623C340.741 308.999 341.089 309.187 341.529 309.187C341.929 309.187 342.273 309.007 342.561 308.647L343.173 309.463ZM348.802 310.099H347.398L346.03 307.675L345.334 308.611V310.099H344.134V304.303H345.334V307.147L347.374 304.303H348.766L346.846 306.907L348.802 310.099Z" fill="#444444"/>
<circle cx="322.5" cy="367.496" r="4" fill="#444444"/>
<path d="M294.824 375.158V377.832C294.824 379.008 295.342 379.596 296.378 379.596C296.9 379.596 297.348 379.526 297.722 379.386V375.158H299.276V384.496H297.722V380.758C297.18 380.898 296.667 380.968 296.182 380.968C295.22 380.968 294.492 380.684 293.998 380.114C293.512 379.536 293.27 378.775 293.27 377.832V375.158H294.824ZM303.7 384.664C302.776 384.664 302.039 384.338 301.488 383.684C300.937 383.031 300.662 382.172 300.662 381.108C300.662 380.1 300.923 379.26 301.446 378.588C301.978 377.907 302.683 377.566 303.56 377.566C304.447 377.566 305.137 377.902 305.632 378.574C306.127 379.246 306.374 380.11 306.374 381.164V381.57H302.076C302.104 382.149 302.272 382.62 302.58 382.984C302.888 383.339 303.308 383.516 303.84 383.516C304.447 383.516 304.955 383.274 305.366 382.788L306.038 383.628C305.431 384.319 304.652 384.664 303.7 384.664ZM305.016 380.576C305.007 380.082 304.881 379.648 304.638 379.274C304.405 378.892 304.041 378.7 303.546 378.7C303.07 378.7 302.711 378.892 302.468 379.274C302.225 379.657 302.09 380.091 302.062 380.576H305.016ZM307.055 384.664V383.474C307.344 383.474 307.568 383.32 307.727 383.012C307.895 382.704 308.016 382.126 308.091 381.276L308.399 377.734H312.767V384.496H311.381V378.952H309.673L309.491 381.388C309.397 382.583 309.15 383.428 308.749 383.922C308.347 384.417 307.783 384.664 307.055 384.664ZM315.768 384.496H314.172L315.628 381.836C315.245 381.734 314.923 381.514 314.662 381.178C314.4 380.833 314.27 380.394 314.27 379.862C314.27 379.246 314.47 378.738 314.872 378.336C315.273 377.935 315.828 377.734 316.538 377.734H319.52V384.496H318.12V382.004H317L315.768 384.496ZM316.706 380.842H318.12V378.896H316.706C316.388 378.896 316.136 378.985 315.95 379.162C315.772 379.34 315.684 379.573 315.684 379.862C315.684 380.152 315.772 380.39 315.95 380.576C316.127 380.754 316.379 380.842 316.706 380.842ZM323.754 383.432C324.239 383.432 324.608 383.208 324.86 382.76C325.112 382.303 325.238 381.743 325.238 381.08C325.238 380.446 325.112 379.909 324.86 379.47C324.608 379.022 324.239 378.798 323.754 378.798C323.278 378.798 322.914 379.022 322.662 379.47C322.41 379.909 322.284 380.446 322.284 381.08C322.284 381.743 322.41 382.303 322.662 382.76C322.914 383.208 323.278 383.432 323.754 383.432ZM323.754 384.664C322.82 384.664 322.102 384.31 321.598 383.6C321.094 382.882 320.842 381.948 320.842 380.8C320.842 379.074 321.052 377.856 321.472 377.146C321.901 376.437 322.666 375.989 323.768 375.802C324.262 375.718 324.603 375.63 324.79 375.536C324.986 375.443 325.084 375.317 325.084 375.158H326.47C326.47 375.466 326.395 375.737 326.246 375.97C326.096 376.194 325.886 376.372 325.616 376.502C325.354 376.633 325.112 376.731 324.888 376.796C324.664 376.862 324.407 376.918 324.118 376.964C322.83 377.17 322.13 377.725 322.018 378.63C322.214 378.304 322.484 378.047 322.83 377.86C323.175 377.664 323.562 377.566 323.992 377.566C324.822 377.566 325.476 377.907 325.952 378.588C326.437 379.27 326.68 380.105 326.68 381.094C326.68 382.093 326.423 382.938 325.91 383.628C325.396 384.319 324.678 384.664 323.754 384.664ZM329.399 384.496H328.041V377.734H329.441V381.976L331.751 377.734H333.179V384.496H331.793V380.114L329.399 384.496ZM336.236 384.496H334.836V377.734H336.236V380.394H338.588V377.734H339.974V384.496H338.588V381.612H336.236V384.496ZM346.321 383.754C345.835 384.361 345.149 384.664 344.263 384.664C343.376 384.664 342.657 384.333 342.107 383.67C341.565 382.998 341.295 382.144 341.295 381.108C341.295 380.072 341.565 379.223 342.107 378.56C342.648 377.898 343.367 377.566 344.263 377.566C345.149 377.566 345.835 377.87 346.321 378.476L345.607 379.428C345.28 379.008 344.879 378.798 344.403 378.798C343.889 378.798 343.483 379.018 343.185 379.456C342.886 379.895 342.737 380.446 342.737 381.108C342.737 381.78 342.886 382.336 343.185 382.774C343.483 383.213 343.889 383.432 344.403 383.432C344.869 383.432 345.271 383.222 345.607 382.802L346.321 383.754ZM352.887 384.496H351.249L349.653 381.668L348.841 382.76V384.496H347.441V377.734H348.841V381.052L351.221 377.734H352.845L350.605 380.772L352.887 384.496Z" fill="#444444"/>
</svg>
