<svg xmlns="http://www.w3.org/2000/svg" id="benefits-2" width="49" height="48" fill="none"><g stroke="#B01736" stroke-width="2" opacity=".9"><path d="M9.604 13.4c-2.103 0-3.8-1.693-3.8-3.754 0-.384.168-1.062.515-1.977.334-.879.79-1.865 1.266-2.82a67.8 67.8 0 0 1 2.02-3.713c.363.622 1.21 2.097 2.018 3.714.477.954.933 1.94 1.266 2.82.347.914.515 1.592.515 1.976 0 2.06-1.697 3.755-3.8 3.755ZM5.805 15.357a1.4 1.4 0 0 1 1.4-1.4h4.799a1.4 1.4 0 0 1 1.4 1.4v12.05h-7.6v-12.05ZM20.203 15.357a1.4 1.4 0 0 1 1.4-1.4h4.8a1.4 1.4 0 0 1 1.4 1.4v12.05h-7.6v-12.05ZM27.802 9.646c0 2.06-1.696 3.755-3.8 3.755-2.102 0-3.799-1.694-3.799-3.755 0-.384.168-1.062.515-1.977.334-.879.789-1.865 1.266-2.82a67.728 67.728 0 0 1 2.019-3.713c.364.622 1.21 2.097 2.019 3.714.477.954.932 1.94 1.266 2.82.347.914.514 1.592.514 1.976ZM34.602 15.357a1.4 1.4 0 0 1 1.4-1.4h4.8a1.4 1.4 0 0 1 1.399 1.4v12.05h-7.6v-12.05ZM38.401 13.4c-2.103 0-3.8-1.693-3.8-3.754 0-.384.169-1.062.516-1.977.333-.879.789-1.865 1.266-2.82A67.873 67.873 0 0 1 38.4 1.136c.364.622 1.211 2.097 2.02 3.714.477.954.932 1.94 1.266 2.82.346.914.514 1.592.514 1.976 0 2.06-1.696 3.755-3.8 3.755ZM.734 36.487l2.081 1.614c1.014.786 2.782.786 3.796 0l2.082-1.614c.464-.358 1.27-.36 1.735 0l2.08 1.614c1.049.813 2.752.811 3.797 0l2.08-1.614c.464-.358 1.27-.36 1.735 0l2.082 1.614c.507.393 1.181.61 1.898.61.717 0 1.391-.217 1.9-.61l2.08-1.614c.466-.36 1.272-.358 1.736 0l2.08 1.614c1.049.813 2.752.811 3.797 0l2.081-1.614c.465-.36 1.271-.358 1.735 0l2.081 1.614c1.046.81 2.749.812 3.796 0l2.082-1.614"/><rect width="45.995" height="19.523" x="1.004" y="27.475" rx="3.8"/></g></svg>