<svg xmlns="http://www.w3.org/2000/svg" id="logo" width="125" height="25" fill="none"><g clip-path="url(#a)"><path fill="#B1B1B1" d="M70.81.39h-6.52v23.672h6.52V.392ZM80.201 6.953h-6.6v17.188h6.6V6.953ZM80.201.39h-6.6v4.532h6.6V.39Z"/><path fill="#B01736" d="m0 19.375 6.522-.625c.233.781.62 1.328 1.087 1.64.466.313 2.096.626 2.95.626.854 0 .543-.313 1.01-.625.387-.313.543-.625.543-1.016 0-.469-.233-.86-.777-1.094-.388-.156-1.32-.39-2.795-.703-2.251-.39-3.882-.781-4.736-1.094-.854-.312-1.63-.937-2.251-1.718-.621-.782-.932-1.72-.932-2.735 0-1.172.31-2.11 1.01-2.89.62-.782 1.552-1.407 2.717-1.875 1.164-.391 2.717-.625 4.58-.625 2.02 0 3.572.156 4.504.468 1.009.313 1.785.782 2.406 1.407.622.625 1.165 1.562 1.63 2.656l-6.21.625c-.155-.547-.388-.938-.777-1.25C9.938 10.234 9.394 10 8.618 10c-.699 0-1.242.156-1.63.39-.311.235-.466.547-.466.938 0 .39.233.703.62.938.39.234 1.398.39 2.796.625 2.174.234 3.804.625 4.814 1.015 1.086.469 1.863 1.094 2.406 1.875.544.781.854 1.719.854 2.735 0 1.015-.31 1.953-.854 2.89-.62.938-1.552 1.719-2.795 2.266-1.242.547-3.028.86-5.202.86-3.105 0-5.357-.47-6.677-1.329C1.242 22.266.388 21.016 0 19.375ZM21.895 22.422c1.708 1.406 3.882 2.11 6.677 2.11 3.105 0 5.512-.86 7.22-2.5 1.708-1.72 2.64-3.829 2.64-6.485 0-2.344-.699-4.297-2.096-5.938-1.708-2.03-4.348-2.968-7.764-2.968-3.028 0-5.357.859-7.143 2.578-1.786 1.719-2.64 3.828-2.64 6.484s1.087 4.922 3.106 6.719Zm4.425-10.313c.621-.78 1.398-1.093 2.407-1.093.932 0 1.63.39 2.252 1.093.62.704.931 1.875.931 3.36 0 1.64-.31 2.812-.931 3.515-.622.703-1.398 1.094-2.33 1.094-.931 0-1.708-.39-2.329-1.094-.621-.78-.932-1.875-.932-3.437 0-1.563.311-2.735.932-3.438ZM47.209 6.953h3.105v4.844H47.21V24.14h-6.6V11.797h-2.484V6.953h2.484v-.781c0-.703.078-1.484.233-2.344.156-.86.466-1.562.854-2.031A5.109 5.109 0 0 1 43.482.469C44.258.156 45.346 0 46.743 0c1.165 0 2.795.156 5.047.39l-.777 3.985c-.776-.156-1.397-.156-1.94-.156-.622 0-1.01.078-1.243.312-.233.157-.388.469-.466.86-.078.234-.155.78-.155 1.562Z"/><path fill="#B01736" d="M59.007 11.797v6.094c0 .703.077 1.25.233 1.484.232.39.62.547 1.087.547.465 0 1.164-.156 2.018-.39l.466 4.53c-1.63.391-3.105.547-4.503.547-1.63 0-2.795-.234-3.572-.625-.776-.39-1.32-1.093-1.708-1.953-.388-.86-.543-2.265-.543-4.14v-6.016h-2.407V6.953h2.407V3.828L59.007.391v11.406Z"/><path fill="#B1B1B1" d="M82.687 6.953h6.134v2.813c.931-1.172 1.863-1.954 2.795-2.422.931-.469 2.096-.703 3.416-.703 1.785 0 3.26.546 4.27 1.64 1.009 1.094 1.553 2.735 1.553 5V24.22h-6.6v-9.532c0-1.093-.233-1.874-.62-2.265-.389-.469-.933-.703-1.709-.703s-1.397.312-1.94.937c-.467.625-.777 1.719-.777 3.281v8.282h-6.6V6.953h.078ZM121.97 16.406c0-2.265-.388-4.14-1.086-5.547-.777-1.406-1.786-2.5-3.261-3.28-1.398-.782-3.339-1.095-5.746-1.095-3.028 0-5.357.86-7.065 2.5-1.708 1.641-2.562 3.829-2.562 6.485 0 1.875.388 3.515 1.242 4.922.854 1.406 1.941 2.422 3.183 3.047 1.32.625 3.106.937 5.358.937 2.562 0 4.58-.39 5.978-1.094 1.397-.781 2.562-1.953 3.571-3.672l-6.444-.625a3.74 3.74 0 0 1-1.164 1.094 3.592 3.592 0 0 1-1.786.469c-1.009 0-1.786-.39-2.485-1.094-.465-.547-.698-1.328-.854-2.344h13.044v-.703h.077Zm-13.043-2.343c.078-1.016.388-1.797.776-2.344.622-.86 1.476-1.25 2.485-1.25.932 0 1.63.312 2.174.86.543.546.854 1.483 1.009 2.733h-6.444ZM30.047 2.656c7.454.78 10.482 1.484 17.47 3.359 5.822 1.562 15.061.86 15.061.86v4.843c-3.649.469-11.49.313-18.012-2.11C32.842 5.39 27.563 4.532 21.352 4.063c-8.54-.625-18.634.703-18.634.703l-.077-.86s14.596-2.578 27.407-1.25ZM121.741 3.594h.311c.466 0 .543-.235.543-.39 0-.313-.465-.313-.543-.313h-.311v.703Zm.544-1.25c.699 0 1.009.39 1.009.781 0 .39-.31.625-.621.703.155.078.311.235.311.313l.465 1.171h-.776l-.388-.937c0-.078-.155-.234-.388-.234h-.156v1.171h-.776V2.345h1.32Zm-.233 3.75a2.26 2.26 0 0 0 2.251-2.266 2.26 2.26 0 0 0-2.251-2.265 2.26 2.26 0 0 0-2.252 2.265 2.26 2.26 0 0 0 2.252 2.266Zm0-5.235c1.63 0 2.95 1.329 2.95 2.97 0 1.64-1.32 2.968-2.95 2.968a2.958 2.958 0 0 1-2.95-2.969c.077-1.64 1.319-2.969 2.95-2.969Z"/></g><defs><clipPath id="a"><path fill="#fff" d="M0 0h125v25H0z"/></clipPath></defs></svg>