<svg width="1190" height="605" viewBox="0 0 1190 605" fill="none" xmlns="http://www.w3.org/2000/svg">
<circle cx="85.375" cy="324.099" r="4" fill="#444444"/>
<path d="M44.6941 341.099H43.1401V331.761H46.3181C47.1955 331.761 47.8721 332.041 48.3481 332.601C48.8335 333.152 49.0761 333.838 49.0761 334.659C49.0761 335.49 48.8335 336.185 48.3481 336.745C47.8721 337.296 47.1955 337.571 46.3181 337.571H44.6941V341.099ZM46.1361 336.199C46.5468 336.199 46.8735 336.059 47.1161 335.779C47.3681 335.499 47.4941 335.126 47.4941 334.659C47.4941 334.192 47.3681 333.819 47.1161 333.539C46.8735 333.259 46.5468 333.119 46.1361 333.119H44.6941V336.199H46.1361ZM54.7338 340.245C54.2204 340.926 53.5064 341.267 52.5918 341.267C51.6771 341.267 50.9584 340.926 50.4358 340.245C49.9224 339.564 49.6658 338.719 49.6658 337.711C49.6658 336.703 49.9224 335.863 50.4358 335.191C50.9491 334.51 51.6678 334.169 52.5918 334.169C53.5158 334.169 54.2344 334.51 54.7478 335.191C55.2611 335.863 55.5178 336.703 55.5178 337.711C55.5178 338.719 55.2564 339.564 54.7338 340.245ZM51.4858 339.363C51.7378 339.811 52.1064 340.035 52.5918 340.035C53.0771 340.035 53.4458 339.811 53.6978 339.363C53.9498 338.915 54.0758 338.364 54.0758 337.711C54.0758 337.058 53.9498 336.512 53.6978 336.073C53.4458 335.625 53.0771 335.401 52.5918 335.401C52.1064 335.401 51.7378 335.625 51.4858 336.073C51.2338 336.512 51.1078 337.058 51.1078 337.711C51.1078 338.364 51.2338 338.915 51.4858 339.363ZM61.5277 340.357C61.0424 340.964 60.3564 341.267 59.4697 341.267C58.5831 341.267 57.8644 340.936 57.3137 340.273C56.7724 339.601 56.5017 338.747 56.5017 337.711C56.5017 336.675 56.7724 335.826 57.3137 335.163C57.8551 334.5 58.5737 334.169 59.4697 334.169C60.3564 334.169 61.0424 334.472 61.5277 335.079L60.8137 336.031C60.4871 335.611 60.0857 335.401 59.6097 335.401C59.0964 335.401 58.6904 335.62 58.3917 336.059C58.0931 336.498 57.9437 337.048 57.9437 337.711C57.9437 338.383 58.0931 338.938 58.3917 339.377C58.6904 339.816 59.0964 340.035 59.6097 340.035C60.0764 340.035 60.4777 339.825 60.8137 339.405L61.5277 340.357ZM65.0003 341.099H63.6003V335.555H62.0743V334.337H66.5263V335.555H65.0003V341.099ZM72.3295 340.245C71.8162 340.926 71.1022 341.267 70.1875 341.267C69.2728 341.267 68.5542 340.926 68.0315 340.245C67.5182 339.564 67.2615 338.719 67.2615 337.711C67.2615 336.703 67.5182 335.863 68.0315 335.191C68.5448 334.51 69.2635 334.169 70.1875 334.169C71.1115 334.169 71.8302 334.51 72.3435 335.191C72.8568 335.863 73.1135 336.703 73.1135 337.711C73.1135 338.719 72.8522 339.564 72.3295 340.245ZM69.0815 339.363C69.3335 339.811 69.7022 340.035 70.1875 340.035C70.6728 340.035 71.0415 339.811 71.2935 339.363C71.5455 338.915 71.6715 338.364 71.6715 337.711C71.6715 337.058 71.5455 336.512 71.2935 336.073C71.0415 335.625 70.6728 335.401 70.1875 335.401C69.7022 335.401 69.3335 335.625 69.0815 336.073C68.8295 336.512 68.7035 337.058 68.7035 337.711C68.7035 338.364 68.8295 338.915 69.0815 339.363ZM77.6394 341.099H74.4334V334.337H77.5554C78.2181 334.337 78.7221 334.5 79.0674 334.827C79.4221 335.144 79.5994 335.555 79.5994 336.059C79.5994 336.451 79.4921 336.782 79.2774 337.053C79.0721 337.314 78.7921 337.496 78.4374 337.599C78.8108 337.683 79.1188 337.884 79.3614 338.201C79.6041 338.509 79.7254 338.864 79.7254 339.265C79.7254 339.816 79.5481 340.259 79.1934 340.595C78.8481 340.931 78.3301 341.099 77.6394 341.099ZM77.3454 339.923C77.9801 339.923 78.2974 339.643 78.2974 339.083C78.2974 338.84 78.2134 338.635 78.0454 338.467C77.8868 338.299 77.6534 338.215 77.3454 338.215H75.8334V339.923H77.3454ZM77.2894 337.053C77.8681 337.053 78.1574 336.796 78.1574 336.283C78.1574 336.05 78.0828 335.863 77.9334 335.723C77.7934 335.574 77.5788 335.499 77.2894 335.499H75.8334V337.053H77.2894ZM83.7757 338.313H80.8497V337.109H83.7757V338.313ZM86.4155 341.099H85.0155V334.337H86.4155V336.997H88.7675V334.337H90.1535V341.099H88.7675V338.215H86.4155V341.099ZM96.6964 341.099H95.3104V340.413C94.8997 340.982 94.307 341.267 93.5324 341.267C92.9537 341.267 92.4637 341.066 92.0624 340.665C91.661 340.254 91.4604 339.704 91.4604 339.013C91.4604 338.322 91.661 337.786 92.0624 337.403C92.4637 337.011 92.9537 336.815 93.5324 336.815C94.3257 336.815 94.9184 337.086 95.3104 337.627V336.647C95.3104 336.236 95.1937 335.919 94.9604 335.695C94.7364 335.471 94.4144 335.359 93.9944 335.359C93.3784 335.359 92.8184 335.616 92.3144 336.129L91.7684 335.149C92.4217 334.496 93.2477 334.169 94.2464 334.169C94.993 334.169 95.5857 334.36 96.0244 334.743C96.4724 335.116 96.6964 335.695 96.6964 336.479V341.099ZM94.0364 340.301C94.5964 340.301 95.021 340.054 95.3104 339.559V338.537C95.1797 338.304 94.9977 338.122 94.7644 337.991C94.531 337.851 94.2884 337.781 94.0364 337.781C93.6817 337.781 93.397 337.898 93.1824 338.131C92.9677 338.364 92.8604 338.668 92.8604 339.041C92.8604 339.414 92.9677 339.718 93.1824 339.951C93.397 340.184 93.6817 340.301 94.0364 340.301ZM100.866 338.313H97.9395V337.109H100.866V338.313ZM101.601 342.821V339.881C101.919 339.834 102.157 339.746 102.315 339.615C102.474 339.484 102.628 339.176 102.777 338.691C102.927 338.206 103.043 337.482 103.127 336.521L103.561 331.761H108.699V339.727H109.525V342.821H107.971V341.099H103.141V342.821H101.601ZM104.667 336.633C104.537 338.052 104.187 339.083 103.617 339.727H107.145V333.119H104.975L104.667 336.633ZM115.287 340.245C114.773 340.926 114.059 341.267 113.145 341.267C112.23 341.267 111.511 340.926 110.989 340.245C110.475 339.564 110.219 338.719 110.219 337.711C110.219 336.703 110.475 335.863 110.989 335.191C111.502 334.51 112.221 334.169 113.145 334.169C114.069 334.169 114.787 334.51 115.301 335.191C115.814 335.863 116.071 336.703 116.071 337.711C116.071 338.719 115.809 339.564 115.287 340.245ZM112.039 339.363C112.291 339.811 112.659 340.035 113.145 340.035C113.63 340.035 113.999 339.811 114.251 339.363C114.503 338.915 114.629 338.364 114.629 337.711C114.629 337.058 114.503 336.512 114.251 336.073C113.999 335.625 113.63 335.401 113.145 335.401C112.659 335.401 112.291 335.625 112.039 336.073C111.787 336.512 111.661 337.058 111.661 337.711C111.661 338.364 111.787 338.915 112.039 339.363ZM118.79 341.099H117.39V334.337H118.79V336.997H121.142V334.337H122.528V341.099H121.142V338.215H118.79V341.099ZM123.947 343.745L124.157 342.513C124.279 342.578 124.428 342.611 124.605 342.611C124.979 342.611 125.235 342.424 125.375 342.051L125.655 341.239L123.387 334.337H124.871L126.369 339.419L127.881 334.337H129.365L126.691 342.373C126.514 342.914 126.262 343.292 125.935 343.507C125.618 343.731 125.207 343.843 124.703 343.843C124.414 343.843 124.162 343.81 123.947 343.745Z" fill="#444444"/>
<circle cx="53.875" cy="383.496" r="4" fill="#444444"/>
<path d="M31.0775 400.496H29.2435L26.8355 396.646L26.1355 397.71V400.496H24.5815V391.158H26.1355V395.652L29.0335 391.158H30.8535L27.8015 395.568L31.0775 400.496ZM36.9317 399.698C36.4931 400.342 35.8957 400.664 35.1397 400.664C34.3837 400.664 33.8051 400.305 33.4037 399.586V403.072H32.0037V393.734H33.4037V394.63C33.5997 394.294 33.8517 394.033 34.1597 393.846C34.4677 393.66 34.7944 393.566 35.1397 393.566C35.9051 393.566 36.5071 393.884 36.9457 394.518C37.3844 395.153 37.6037 396.016 37.6037 397.108C37.6037 398.191 37.3797 399.054 36.9317 399.698ZM34.7197 399.432C35.1864 399.432 35.5411 399.218 35.7837 398.788C36.0357 398.35 36.1617 397.79 36.1617 397.108C36.1617 396.427 36.0357 395.872 35.7837 395.442C35.5411 395.013 35.1864 394.798 34.7197 394.798C34.4584 394.798 34.2017 394.887 33.9497 395.064C33.7071 395.242 33.5251 395.461 33.4037 395.722V398.494C33.5251 398.756 33.7071 398.98 33.9497 399.166C34.2017 399.344 34.4584 399.432 34.7197 399.432ZM43.7804 400.496H42.3944V399.81C41.9837 400.38 41.391 400.664 40.6164 400.664C40.0377 400.664 39.5477 400.464 39.1464 400.062C38.745 399.652 38.5444 399.101 38.5444 398.41C38.5444 397.72 38.745 397.183 39.1464 396.8C39.5477 396.408 40.0377 396.212 40.6164 396.212C41.4097 396.212 42.0024 396.483 42.3944 397.024V396.044C42.3944 395.634 42.2777 395.316 42.0444 395.092C41.8204 394.868 41.4984 394.756 41.0784 394.756C40.4624 394.756 39.9024 395.013 39.3984 395.526L38.8524 394.546C39.5057 393.893 40.3317 393.566 41.3304 393.566C42.077 393.566 42.6697 393.758 43.1084 394.14C43.5564 394.514 43.7804 395.092 43.7804 395.876V400.496ZM41.1204 399.698C41.6804 399.698 42.105 399.451 42.3944 398.956V397.934C42.2637 397.701 42.0817 397.519 41.8484 397.388C41.615 397.248 41.3724 397.178 41.1204 397.178C40.7657 397.178 40.481 397.295 40.2664 397.528C40.0517 397.762 39.9444 398.065 39.9444 398.438C39.9444 398.812 40.0517 399.115 40.2664 399.348C40.481 399.582 40.7657 399.698 41.1204 399.698ZM50.1195 399.754C49.6342 400.361 48.9482 400.664 48.0615 400.664C47.1748 400.664 46.4562 400.333 45.9055 399.67C45.3642 398.998 45.0935 398.144 45.0935 397.108C45.0935 396.072 45.3642 395.223 45.9055 394.56C46.4468 393.898 47.1655 393.566 48.0615 393.566C48.9482 393.566 49.6342 393.87 50.1195 394.476L49.4055 395.428C49.0788 395.008 48.6775 394.798 48.2015 394.798C47.6882 394.798 47.2822 395.018 46.9835 395.456C46.6848 395.895 46.5355 396.446 46.5355 397.108C46.5355 397.78 46.6848 398.336 46.9835 398.774C47.2822 399.213 47.6882 399.432 48.2015 399.432C48.6682 399.432 49.0695 399.222 49.4055 398.802L50.1195 399.754ZM52.6401 400.496H51.2401V393.734H52.6401V396.394H54.9921V393.734H56.3781V400.496H54.9921V397.612H52.6401V400.496ZM62.767 399.642C62.2537 400.324 61.5397 400.664 60.625 400.664C59.7103 400.664 58.9917 400.324 58.469 399.642C57.9557 398.961 57.699 398.116 57.699 397.108C57.699 396.1 57.9557 395.26 58.469 394.588C58.9823 393.907 59.701 393.566 60.625 393.566C61.549 393.566 62.2677 393.907 62.781 394.588C63.2943 395.26 63.551 396.1 63.551 397.108C63.551 398.116 63.2897 398.961 62.767 399.642ZM59.519 398.76C59.771 399.208 60.1397 399.432 60.625 399.432C61.1103 399.432 61.479 399.208 61.731 398.76C61.983 398.312 62.109 397.762 62.109 397.108C62.109 396.455 61.983 395.909 61.731 395.47C61.479 395.022 61.1103 394.798 60.625 394.798C60.1397 394.798 59.771 395.022 59.519 395.47C59.267 395.909 59.141 396.455 59.141 397.108C59.141 397.762 59.267 398.312 59.519 398.76ZM64.2969 402.218V399.39C64.6143 399.325 64.8476 399.162 64.9969 398.9C65.1463 398.639 65.2583 398.098 65.3329 397.276L65.6409 393.734H70.0089V399.278H70.7369V402.218H69.3369V400.496H65.6829V402.218H64.2969ZM66.9149 394.952L66.7329 397.388C66.6676 398.228 66.4156 398.858 65.9769 399.278H68.6229V394.952H66.9149ZM76.6612 400.496H75.2752V399.81C74.8646 400.38 74.2719 400.664 73.4972 400.664C72.9186 400.664 72.4286 400.464 72.0272 400.062C71.6259 399.652 71.4252 399.101 71.4252 398.41C71.4252 397.72 71.6259 397.183 72.0272 396.8C72.4286 396.408 72.9186 396.212 73.4972 396.212C74.2906 396.212 74.8832 396.483 75.2752 397.024V396.044C75.2752 395.634 75.1586 395.316 74.9252 395.092C74.7012 394.868 74.3792 394.756 73.9592 394.756C73.3432 394.756 72.7832 395.013 72.2792 395.526L71.7332 394.546C72.3866 393.893 73.2126 393.566 74.2112 393.566C74.9579 393.566 75.5506 393.758 75.9892 394.14C76.4372 394.514 76.6612 395.092 76.6612 395.876V400.496ZM74.0012 399.698C74.5612 399.698 74.9859 399.451 75.2752 398.956V397.934C75.1446 397.701 74.9626 397.519 74.7292 397.388C74.4959 397.248 74.2532 397.178 74.0012 397.178C73.6466 397.178 73.3619 397.295 73.1472 397.528C72.9326 397.762 72.8252 398.065 72.8252 398.438C72.8252 398.812 72.9326 399.115 73.1472 399.348C73.3619 399.582 73.6466 399.698 74.0012 399.698ZM83.2384 399.698C82.7997 400.342 82.2024 400.664 81.4464 400.664C80.6904 400.664 80.1117 400.305 79.7104 399.586V403.072H78.3104V393.734H79.7104V394.63C79.9064 394.294 80.1584 394.033 80.4664 393.846C80.7744 393.66 81.101 393.566 81.4464 393.566C82.2117 393.566 82.8137 393.884 83.2524 394.518C83.691 395.153 83.9104 396.016 83.9104 397.108C83.9104 398.191 83.6864 399.054 83.2384 399.698ZM81.0264 399.432C81.493 399.432 81.8477 399.218 82.0904 398.788C82.3424 398.35 82.4684 397.79 82.4684 397.108C82.4684 396.427 82.3424 395.872 82.0904 395.442C81.8477 395.013 81.493 394.798 81.0264 394.798C80.765 394.798 80.5084 394.887 80.2564 395.064C80.0137 395.242 79.8317 395.461 79.7104 395.722V398.494C79.8317 398.756 80.0137 398.98 80.2564 399.166C80.5084 399.344 80.765 399.432 81.0264 399.432Z" fill="#444444"/>
<circle cx="112.5" cy="365.496" r="4" fill="#444444"/>
<path d="M91.3919 381.496H88.2719V373.492H91.2959C91.9519 373.492 92.4599 373.684 92.8199 374.068C93.1799 374.452 93.3599 374.94 93.3599 375.532C93.3599 376.02 93.2399 376.424 92.9999 376.744C92.7679 377.056 92.4679 377.264 92.0999 377.368C92.4919 377.424 92.8199 377.644 93.0839 378.028C93.3559 378.404 93.4919 378.84 93.4919 379.336C93.4919 379.984 93.3119 380.508 92.9519 380.908C92.5919 381.3 92.0719 381.496 91.3919 381.496ZM91.0079 376.828C91.3359 376.828 91.5799 376.732 91.7399 376.54C91.9079 376.34 91.9919 376.076 91.9919 375.748C91.9919 375.42 91.9079 375.156 91.7399 374.956C91.5719 374.756 91.3279 374.656 91.0079 374.656H89.6039V376.828H91.0079ZM91.0559 380.32C91.4079 380.32 91.6719 380.22 91.8479 380.02C92.0319 379.812 92.1239 379.524 92.1239 379.156C92.1239 378.82 92.0319 378.544 91.8479 378.328C91.6639 378.112 91.3999 378.004 91.0559 378.004H89.6039V380.32H91.0559ZM98.7484 380.764C98.3084 381.348 97.6964 381.64 96.9124 381.64C96.1284 381.64 95.5124 381.348 95.0644 380.764C94.6244 380.18 94.4044 379.456 94.4044 378.592C94.4044 377.728 94.6244 377.008 95.0644 376.432C95.5044 375.848 96.1204 375.556 96.9124 375.556C97.7044 375.556 98.3204 375.848 98.7604 376.432C99.2004 377.008 99.4204 377.728 99.4204 378.592C99.4204 379.456 99.1964 380.18 98.7484 380.764ZM95.9644 380.008C96.1804 380.392 96.4964 380.584 96.9124 380.584C97.3284 380.584 97.6444 380.392 97.8604 380.008C98.0764 379.624 98.1844 379.152 98.1844 378.592C98.1844 378.032 98.0764 377.564 97.8604 377.188C97.6444 376.804 97.3284 376.612 96.9124 376.612C96.4964 376.612 96.1804 376.804 95.9644 377.188C95.7484 377.564 95.6404 378.032 95.6404 378.592C95.6404 379.152 95.7484 379.624 95.9644 380.008ZM100.06 381.64V380.62C100.308 380.62 100.5 380.488 100.636 380.224C100.78 379.96 100.884 379.464 100.948 378.736L101.212 375.7H104.956V381.496H103.768V376.744H102.304L102.148 378.832C102.068 379.856 101.856 380.58 101.512 381.004C101.168 381.428 100.684 381.64 100.06 381.64ZM109.976 375.7V376.744H107.576V381.496H106.376V375.7H109.976ZM114.955 380.764C114.515 381.348 113.903 381.64 113.119 381.64C112.335 381.64 111.719 381.348 111.271 380.764C110.831 380.18 110.611 379.456 110.611 378.592C110.611 377.728 110.831 377.008 111.271 376.432C111.711 375.848 112.327 375.556 113.119 375.556C113.911 375.556 114.527 375.848 114.967 376.432C115.407 377.008 115.627 377.728 115.627 378.592C115.627 379.456 115.403 380.18 114.955 380.764ZM112.171 380.008C112.387 380.392 112.703 380.584 113.119 380.584C113.535 380.584 113.851 380.392 114.067 380.008C114.283 379.624 114.391 379.152 114.391 378.592C114.391 378.032 114.283 377.564 114.067 377.188C113.851 376.804 113.535 376.612 113.119 376.612C112.703 376.612 112.387 376.804 112.171 377.188C111.955 377.564 111.847 378.032 111.847 378.592C111.847 379.152 111.955 379.624 112.171 380.008ZM120.359 375.7V376.744H117.959V381.496H116.759V375.7H120.359ZM125.506 380.812C125.13 381.364 124.618 381.64 123.97 381.64C123.322 381.64 122.826 381.332 122.482 380.716V383.704H121.282V375.7H122.482V376.468C122.65 376.18 122.866 375.956 123.13 375.796C123.394 375.636 123.674 375.556 123.97 375.556C124.626 375.556 125.142 375.828 125.518 376.372C125.894 376.916 126.082 377.656 126.082 378.592C126.082 379.52 125.89 380.26 125.506 380.812ZM123.61 380.584C124.01 380.584 124.314 380.4 124.522 380.032C124.738 379.656 124.846 379.176 124.846 378.592C124.846 378.008 124.738 377.532 124.522 377.164C124.314 376.796 124.01 376.612 123.61 376.612C123.386 376.612 123.166 376.688 122.95 376.84C122.742 376.992 122.586 377.18 122.482 377.404V379.78C122.586 380.004 122.742 380.196 122.95 380.356C123.166 380.508 123.386 380.584 123.61 380.584ZM131.376 381.496H130.188V380.908C129.836 381.396 129.328 381.64 128.664 381.64C128.168 381.64 127.748 381.468 127.404 381.124C127.06 380.772 126.888 380.3 126.888 379.708C126.888 379.116 127.06 378.656 127.404 378.328C127.748 377.992 128.168 377.824 128.664 377.824C129.344 377.824 129.852 378.056 130.188 378.52V377.68C130.188 377.328 130.088 377.056 129.888 376.864C129.696 376.672 129.42 376.576 129.06 376.576C128.532 376.576 128.052 376.796 127.62 377.236L127.152 376.396C127.712 375.836 128.42 375.556 129.276 375.556C129.916 375.556 130.424 375.72 130.8 376.048C131.184 376.368 131.376 376.864 131.376 377.536V381.496ZM129.096 380.812C129.576 380.812 129.94 380.6 130.188 380.176V379.3C130.076 379.1 129.92 378.944 129.72 378.832C129.52 378.712 129.312 378.652 129.096 378.652C128.792 378.652 128.548 378.752 128.364 378.952C128.18 379.152 128.088 379.412 128.088 379.732C128.088 380.052 128.18 380.312 128.364 380.512C128.548 380.712 128.792 380.812 129.096 380.812ZM132.298 382.972V380.548C132.57 380.492 132.77 380.352 132.898 380.128C133.026 379.904 133.122 379.44 133.186 378.736L133.45 375.7H137.194V380.452H137.818V382.972H136.618V381.496H133.486V382.972H132.298ZM134.542 376.744L134.386 378.832C134.33 379.552 134.114 380.092 133.738 380.452H136.006V376.744H134.542Z" fill="#444444"/>
</svg>
