<svg width="1190" height="605" viewBox="0 0 1190 605" fill="none" xmlns="http://www.w3.org/2000/svg">
<circle cx="515" cy="458.66" r="4" fill="#444444"/>
<path d="M489.809 474.66H488.477V471.132H485.549V474.66H484.217V466.656H485.549V469.956H488.477V466.656H489.809V474.66ZM495.327 473.928C494.887 474.512 494.275 474.804 493.491 474.804C492.707 474.804 492.091 474.512 491.643 473.928C491.203 473.344 490.983 472.62 490.983 471.756C490.983 470.892 491.203 470.172 491.643 469.596C492.083 469.012 492.699 468.72 493.491 468.72C494.283 468.72 494.899 469.012 495.339 469.596C495.779 470.172 495.999 470.892 495.999 471.756C495.999 472.62 495.775 473.344 495.327 473.928ZM492.543 473.172C492.759 473.556 493.075 473.748 493.491 473.748C493.907 473.748 494.223 473.556 494.439 473.172C494.655 472.788 494.763 472.316 494.763 471.756C494.763 471.196 494.655 470.728 494.439 470.352C494.223 469.968 493.907 469.776 493.491 469.776C493.075 469.776 492.759 469.968 492.543 470.352C492.327 470.728 492.219 471.196 492.219 471.756C492.219 472.316 492.327 472.788 492.543 473.172ZM499.878 474.66H497.13V468.864H499.806C500.374 468.864 500.806 469.004 501.102 469.284C501.406 469.556 501.558 469.908 501.558 470.34C501.558 470.676 501.466 470.96 501.282 471.192C501.106 471.416 500.866 471.572 500.562 471.66C500.882 471.732 501.146 471.904 501.354 472.176C501.562 472.44 501.666 472.744 501.666 473.088C501.666 473.56 501.514 473.94 501.21 474.228C500.914 474.516 500.47 474.66 499.878 474.66ZM499.626 473.652C500.17 473.652 500.442 473.412 500.442 472.932C500.442 472.724 500.37 472.548 500.226 472.404C500.09 472.26 499.89 472.188 499.626 472.188H498.33V473.652H499.626ZM499.578 471.192C500.074 471.192 500.322 470.972 500.322 470.532C500.322 470.332 500.258 470.172 500.13 470.052C500.01 469.924 499.826 469.86 499.578 469.86H498.33V471.192H499.578ZM507.034 473.928C506.594 474.512 505.982 474.804 505.198 474.804C504.414 474.804 503.798 474.512 503.35 473.928C502.91 473.344 502.69 472.62 502.69 471.756C502.69 470.892 502.91 470.172 503.35 469.596C503.79 469.012 504.406 468.72 505.198 468.72C505.99 468.72 506.606 469.012 507.046 469.596C507.486 470.172 507.706 470.892 507.706 471.756C507.706 472.62 507.482 473.344 507.034 473.928ZM504.25 473.172C504.466 473.556 504.782 473.748 505.198 473.748C505.614 473.748 505.93 473.556 506.146 473.172C506.362 472.788 506.47 472.316 506.47 471.756C506.47 471.196 506.362 470.728 506.146 470.352C505.93 469.968 505.614 469.776 505.198 469.776C504.782 469.776 504.466 469.968 504.25 470.352C504.034 470.728 503.926 471.196 503.926 471.756C503.926 472.316 504.034 472.788 504.25 473.172ZM512.857 474.024C512.441 474.544 511.853 474.804 511.093 474.804C510.333 474.804 509.717 474.52 509.245 473.952C508.781 473.376 508.549 472.644 508.549 471.756C508.549 470.868 508.781 470.14 509.245 469.572C509.709 469.004 510.325 468.72 511.093 468.72C511.853 468.72 512.441 468.98 512.857 469.5L512.245 470.316C511.965 469.956 511.621 469.776 511.213 469.776C510.773 469.776 510.425 469.964 510.169 470.34C509.913 470.716 509.785 471.188 509.785 471.756C509.785 472.332 509.913 472.808 510.169 473.184C510.425 473.56 510.773 473.748 511.213 473.748C511.613 473.748 511.957 473.568 512.245 473.208L512.857 474.024ZM514.981 474.66H513.817V468.864H515.017V472.5L516.997 468.864H518.221V474.66H517.033V470.904L514.981 474.66ZM521.85 473.748C522.266 473.748 522.582 473.556 522.798 473.172C523.014 472.78 523.122 472.3 523.122 471.732C523.122 471.188 523.014 470.728 522.798 470.352C522.582 469.968 522.266 469.776 521.85 469.776C521.442 469.776 521.13 469.968 520.914 470.352C520.698 470.728 520.59 471.188 520.59 471.732C520.59 472.3 520.698 472.78 520.914 473.172C521.13 473.556 521.442 473.748 521.85 473.748ZM521.85 474.804C521.05 474.804 520.434 474.5 520.002 473.892C519.57 473.276 519.354 472.476 519.354 471.492C519.354 470.012 519.534 468.968 519.894 468.36C520.262 467.752 520.918 467.368 521.862 467.208C522.286 467.136 522.578 467.06 522.738 466.98C522.906 466.9 522.99 466.792 522.99 466.656H524.178C524.178 466.92 524.114 467.152 523.986 467.352C523.858 467.544 523.678 467.696 523.446 467.808C523.222 467.92 523.014 468.004 522.822 468.06C522.63 468.116 522.41 468.164 522.162 468.204C521.058 468.38 520.458 468.856 520.362 469.632C520.53 469.352 520.762 469.132 521.058 468.972C521.354 468.804 521.686 468.72 522.054 468.72C522.766 468.72 523.326 469.012 523.734 469.596C524.15 470.18 524.358 470.896 524.358 471.744C524.358 472.6 524.138 473.324 523.698 473.916C523.258 474.508 522.642 474.804 521.85 474.804ZM526.688 474.66H525.524V468.864H526.724V472.5L528.704 468.864H529.928V474.66H528.74V470.904L526.688 474.66ZM535.573 473.976C535.197 474.528 534.685 474.804 534.037 474.804C533.389 474.804 532.893 474.496 532.549 473.88V476.868H531.349V468.864H532.549V469.632C532.717 469.344 532.933 469.12 533.197 468.96C533.461 468.8 533.741 468.72 534.037 468.72C534.693 468.72 535.209 468.992 535.585 469.536C535.961 470.08 536.149 470.82 536.149 471.756C536.149 472.684 535.957 473.424 535.573 473.976ZM533.677 473.748C534.077 473.748 534.381 473.564 534.589 473.196C534.805 472.82 534.913 472.34 534.913 471.756C534.913 471.172 534.805 470.696 534.589 470.328C534.381 469.96 534.077 469.776 533.677 469.776C533.453 469.776 533.233 469.852 533.017 470.004C532.809 470.156 532.653 470.344 532.549 470.568V472.944C532.653 473.168 532.809 473.36 533.017 473.52C533.233 473.672 533.453 473.748 533.677 473.748ZM541.275 474.024C540.859 474.544 540.271 474.804 539.511 474.804C538.751 474.804 538.135 474.52 537.663 473.952C537.199 473.376 536.967 472.644 536.967 471.756C536.967 470.868 537.199 470.14 537.663 469.572C538.127 469.004 538.743 468.72 539.511 468.72C540.271 468.72 540.859 468.98 541.275 469.5L540.663 470.316C540.383 469.956 540.039 469.776 539.631 469.776C539.191 469.776 538.843 469.964 538.587 470.34C538.331 470.716 538.203 471.188 538.203 471.756C538.203 472.332 538.331 472.808 538.587 473.184C538.843 473.56 539.191 473.748 539.631 473.748C540.031 473.748 540.375 473.568 540.663 473.208L541.275 474.024ZM546.903 474.66H545.499L544.131 472.236L543.435 473.172V474.66H542.235V468.864H543.435V471.708L545.475 468.864H546.867L544.947 471.468L546.903 474.66Z" fill="#444444"/>
<circle cx="638.5" cy="460.66" r="4" fill="#444444"/>
<path d="M616.594 476.66H615.022L612.958 473.36L612.358 474.272V476.66H611.026V468.656H612.358V472.508L614.842 468.656H616.402L613.786 472.436L616.594 476.66ZM621.612 475.976C621.236 476.528 620.724 476.804 620.076 476.804C619.428 476.804 618.932 476.496 618.588 475.88V478.868H617.388V470.864H618.588V471.632C618.756 471.344 618.972 471.12 619.236 470.96C619.5 470.8 619.78 470.72 620.076 470.72C620.732 470.72 621.248 470.992 621.624 471.536C622 472.08 622.188 472.82 622.188 473.756C622.188 474.684 621.996 475.424 621.612 475.976ZM619.716 475.748C620.116 475.748 620.42 475.564 620.628 475.196C620.844 474.82 620.952 474.34 620.952 473.756C620.952 473.172 620.844 472.696 620.628 472.328C620.42 471.96 620.116 471.776 619.716 471.776C619.492 471.776 619.272 471.852 619.056 472.004C618.848 472.156 618.692 472.344 618.588 472.568V474.944C618.692 475.168 618.848 475.36 619.056 475.52C619.272 475.672 619.492 475.748 619.716 475.748ZM627.482 476.66H626.294V476.072C625.942 476.56 625.434 476.804 624.77 476.804C624.274 476.804 623.854 476.632 623.51 476.288C623.166 475.936 622.994 475.464 622.994 474.872C622.994 474.28 623.166 473.82 623.51 473.492C623.854 473.156 624.274 472.988 624.77 472.988C625.45 472.988 625.958 473.22 626.294 473.684V472.844C626.294 472.492 626.194 472.22 625.994 472.028C625.802 471.836 625.526 471.74 625.166 471.74C624.638 471.74 624.158 471.96 623.726 472.4L623.258 471.56C623.818 471 624.526 470.72 625.382 470.72C626.022 470.72 626.53 470.884 626.906 471.212C627.29 471.532 627.482 472.028 627.482 472.7V476.66ZM625.202 475.976C625.682 475.976 626.046 475.764 626.294 475.34V474.464C626.182 474.264 626.026 474.108 625.826 473.996C625.626 473.876 625.418 473.816 625.202 473.816C624.898 473.816 624.654 473.916 624.47 474.116C624.286 474.316 624.194 474.576 624.194 474.896C624.194 475.216 624.286 475.476 624.47 475.676C624.654 475.876 624.898 475.976 625.202 475.976ZM632.916 476.024C632.5 476.544 631.912 476.804 631.152 476.804C630.392 476.804 629.776 476.52 629.304 475.952C628.84 475.376 628.608 474.644 628.608 473.756C628.608 472.868 628.84 472.14 629.304 471.572C629.768 471.004 630.384 470.72 631.152 470.72C631.912 470.72 632.5 470.98 632.916 471.5L632.304 472.316C632.024 471.956 631.68 471.776 631.271 471.776C630.832 471.776 630.484 471.964 630.228 472.34C629.972 472.716 629.844 473.188 629.844 473.756C629.844 474.332 629.972 474.808 630.228 475.184C630.484 475.56 630.832 475.748 631.271 475.748C631.672 475.748 632.016 475.568 632.304 475.208L632.916 476.024ZM635.076 476.66H633.876V470.864H635.076V473.144H637.092V470.864H638.28V476.66H637.092V474.188H635.076V476.66ZM643.756 475.928C643.316 476.512 642.704 476.804 641.92 476.804C641.136 476.804 640.52 476.512 640.072 475.928C639.632 475.344 639.412 474.62 639.412 473.756C639.412 472.892 639.632 472.172 640.072 471.596C640.512 471.012 641.128 470.72 641.92 470.72C642.712 470.72 643.328 471.012 643.768 471.596C644.208 472.172 644.428 472.892 644.428 473.756C644.428 474.62 644.204 475.344 643.756 475.928ZM640.972 475.172C641.188 475.556 641.504 475.748 641.92 475.748C642.336 475.748 642.652 475.556 642.868 475.172C643.084 474.788 643.192 474.316 643.192 473.756C643.192 473.196 643.084 472.728 642.868 472.352C642.652 471.968 642.336 471.776 641.92 471.776C641.504 471.776 641.188 471.968 640.972 472.352C640.756 472.728 640.648 473.196 640.648 473.756C640.648 474.316 640.756 474.788 640.972 475.172ZM646.712 476.66H645.344L646.592 474.38C646.264 474.292 645.988 474.104 645.764 473.816C645.54 473.52 645.428 473.144 645.428 472.688C645.428 472.16 645.6 471.724 645.944 471.38C646.288 471.036 646.764 470.864 647.372 470.864H649.928V476.66H648.728V474.524H647.768L646.712 476.66ZM647.516 473.528H648.728V471.86H647.516C647.244 471.86 647.028 471.936 646.868 472.088C646.716 472.24 646.64 472.44 646.64 472.688C646.64 472.936 646.716 473.14 646.868 473.3C647.02 473.452 647.236 473.528 647.516 473.528ZM655.573 475.976C655.197 476.528 654.685 476.804 654.037 476.804C653.389 476.804 652.893 476.496 652.549 475.88V478.868H651.349V470.864H652.549V471.632C652.717 471.344 652.933 471.12 653.197 470.96C653.461 470.8 653.741 470.72 654.037 470.72C654.693 470.72 655.209 470.992 655.585 471.536C655.961 472.08 656.149 472.82 656.149 473.756C656.149 474.684 655.957 475.424 655.573 475.976ZM653.677 475.748C654.077 475.748 654.381 475.564 654.589 475.196C654.805 474.82 654.913 474.34 654.913 473.756C654.913 473.172 654.805 472.696 654.589 472.328C654.381 471.96 654.077 471.776 653.677 471.776C653.453 471.776 653.233 471.852 653.017 472.004C652.809 472.156 652.653 472.344 652.549 472.568V474.944C652.653 475.168 652.809 475.36 653.017 475.52C653.233 475.672 653.453 475.748 653.677 475.748ZM661.275 476.024C660.859 476.544 660.271 476.804 659.511 476.804C658.751 476.804 658.135 476.52 657.663 475.952C657.199 475.376 656.967 474.644 656.967 473.756C656.967 472.868 657.199 472.14 657.663 471.572C658.127 471.004 658.743 470.72 659.511 470.72C660.271 470.72 660.859 470.98 661.275 471.5L660.663 472.316C660.383 471.956 660.039 471.776 659.631 471.776C659.191 471.776 658.843 471.964 658.587 472.34C658.331 472.716 658.203 473.188 658.203 473.756C658.203 474.332 658.331 474.808 658.587 475.184C658.843 475.56 659.191 475.748 659.631 475.748C660.031 475.748 660.375 475.568 660.663 475.208L661.275 476.024ZM666.903 476.66H665.499L664.131 474.236L663.435 475.172V476.66H662.235V470.864H663.435V473.708L665.475 470.864H666.867L664.947 473.468L666.903 476.66Z" fill="#444444"/>
<circle cx="694.5" cy="493.66" r="4" fill="#444444"/>
<path d="M674.659 510.66H673.175V501.322H674.729V507.398L678.103 501.322H679.671V510.66H678.131V504.416L674.659 510.66ZM686.318 509.862C685.88 510.506 685.282 510.828 684.526 510.828C683.77 510.828 683.192 510.468 682.79 509.75V513.236H681.39V503.898H682.79V504.794C682.986 504.458 683.238 504.196 683.546 504.01C683.854 503.823 684.181 503.73 684.526 503.73C685.292 503.73 685.894 504.047 686.332 504.682C686.771 505.316 686.99 506.18 686.99 507.272C686.99 508.354 686.766 509.218 686.318 509.862ZM684.106 509.596C684.573 509.596 684.928 509.381 685.17 508.952C685.422 508.513 685.548 507.953 685.548 507.272C685.548 506.59 685.422 506.035 685.17 505.606C684.928 505.176 684.573 504.962 684.106 504.962C683.845 504.962 683.588 505.05 683.336 505.228C683.094 505.405 682.912 505.624 682.79 505.886V508.658C682.912 508.919 683.094 509.143 683.336 509.33C683.588 509.507 683.845 509.596 684.106 509.596ZM693.727 510.66H692.089L690.493 507.832L689.681 508.924V510.66H688.281V503.898H689.681V507.216L692.061 503.898H693.685L691.445 506.936L693.727 510.66ZM694.428 513.306L694.638 512.074C694.759 512.139 694.909 512.172 695.086 512.172C695.459 512.172 695.716 511.985 695.856 511.612L696.136 510.8L693.868 503.898H695.352L696.85 508.98L698.362 503.898H699.846L697.172 511.934C696.995 512.475 696.743 512.853 696.416 513.068C696.099 513.292 695.688 513.404 695.184 513.404C694.895 513.404 694.643 513.371 694.428 513.306ZM703.033 510.66H701.633V505.116H700.107V503.898H704.559V505.116H703.033V510.66ZM710.321 509.918C709.835 510.524 709.149 510.828 708.263 510.828C707.376 510.828 706.657 510.496 706.107 509.834C705.565 509.162 705.295 508.308 705.295 507.272C705.295 506.236 705.565 505.386 706.107 504.724C706.648 504.061 707.367 503.73 708.263 503.73C709.149 503.73 709.835 504.033 710.321 504.64L709.607 505.592C709.28 505.172 708.879 504.962 708.403 504.962C707.889 504.962 707.483 505.181 707.185 505.62C706.886 506.058 706.737 506.609 706.737 507.272C706.737 507.944 706.886 508.499 707.185 508.938C707.483 509.376 707.889 509.596 708.403 509.596C708.869 509.596 709.271 509.386 709.607 508.966L710.321 509.918ZM716.887 510.66H715.249L713.653 507.832L712.841 508.924V510.66H711.441V503.898H712.841V507.216L715.221 503.898H716.845L714.605 506.936L716.887 510.66Z" fill="#444444"/>
<path d="M569.301 453.66H567.761V445.68H565.619V444.322H571.443V445.68H569.301V453.66ZM576.228 452.806C575.715 453.487 575.001 453.828 574.086 453.828C573.171 453.828 572.453 453.487 571.93 452.806C571.417 452.124 571.16 451.28 571.16 450.272C571.16 449.264 571.417 448.424 571.93 447.752C572.443 447.07 573.162 446.73 574.086 446.73C575.01 446.73 575.729 447.07 576.242 447.752C576.755 448.424 577.012 449.264 577.012 450.272C577.012 451.28 576.751 452.124 576.228 452.806ZM572.98 451.924C573.232 452.372 573.601 452.596 574.086 452.596C574.571 452.596 574.94 452.372 575.192 451.924C575.444 451.476 575.57 450.925 575.57 450.272C575.57 449.618 575.444 449.072 575.192 448.634C574.94 448.186 574.571 447.962 574.086 447.962C573.601 447.962 573.232 448.186 572.98 448.634C572.728 449.072 572.602 449.618 572.602 450.272C572.602 450.925 572.728 451.476 572.98 451.924ZM584.982 453.66H583.61V449.25L581.944 453.66H581.384L579.732 449.25V453.66H578.332V446.898H580.124L581.664 450.972L583.204 446.898H584.982V453.66ZM591.321 452.918C590.835 453.524 590.149 453.828 589.263 453.828C588.376 453.828 587.657 453.496 587.107 452.834C586.565 452.162 586.295 451.308 586.295 450.272C586.295 449.236 586.565 448.386 587.107 447.724C587.648 447.061 588.367 446.73 589.263 446.73C590.149 446.73 590.835 447.033 591.321 447.64L590.607 448.592C590.28 448.172 589.879 447.962 589.403 447.962C588.889 447.962 588.483 448.181 588.185 448.62C587.886 449.058 587.737 449.609 587.737 450.272C587.737 450.944 587.886 451.499 588.185 451.938C588.483 452.376 588.889 452.596 589.403 452.596C589.869 452.596 590.271 452.386 590.607 451.966L591.321 452.918ZM597.887 453.66H596.249L594.653 450.832L593.841 451.924V453.66H592.441V446.898H593.841V450.216L596.221 446.898H597.845L595.605 449.936L597.887 453.66Z" fill="#444444"/>
<circle cx="581.5" cy="462.66" r="4" fill="#444444"/>
<circle cx="462.5" cy="478.66" r="4" fill="#444444"/>
<path d="M455.448 494.47C454.785 495.375 453.875 495.828 452.718 495.828C451.56 495.828 450.646 495.375 449.974 494.47C449.311 493.564 448.98 492.407 448.98 490.998C448.98 489.588 449.311 488.431 449.974 487.526C450.646 486.62 451.56 486.168 452.718 486.168C453.875 486.168 454.785 486.62 455.448 487.526C456.12 488.431 456.456 489.588 456.456 490.998C456.456 492.407 456.12 493.564 455.448 494.47ZM452.718 494.442C453.39 494.442 453.917 494.12 454.3 493.476C454.682 492.822 454.874 491.996 454.874 490.998C454.874 489.99 454.682 489.164 454.3 488.52C453.917 487.866 453.39 487.54 452.718 487.54C452.036 487.54 451.504 487.862 451.122 488.506C450.748 489.15 450.562 489.98 450.562 490.998C450.562 492.006 450.748 492.832 451.122 493.476C451.504 494.12 452.036 494.442 452.718 494.442ZM464.482 495.66H463.11V491.25L461.444 495.66H460.884L459.232 491.25V495.66H457.832V488.898H459.624L461.164 492.972L462.704 488.898H464.482V495.66ZM470.821 494.918C470.335 495.524 469.649 495.828 468.763 495.828C467.876 495.828 467.157 495.496 466.607 494.834C466.065 494.162 465.795 493.308 465.795 492.272C465.795 491.236 466.065 490.386 466.607 489.724C467.148 489.061 467.867 488.73 468.763 488.73C469.649 488.73 470.335 489.033 470.821 489.64L470.107 490.592C469.78 490.172 469.379 489.962 468.903 489.962C468.389 489.962 467.983 490.181 467.685 490.62C467.386 491.058 467.237 491.609 467.237 492.272C467.237 492.944 467.386 493.499 467.685 493.938C467.983 494.376 468.389 494.596 468.903 494.596C469.369 494.596 469.771 494.386 470.107 493.966L470.821 494.918ZM477.387 495.66H475.749L474.153 492.832L473.341 493.924V495.66H471.941V488.898H473.341V492.216L475.721 488.898H477.345L475.105 491.936L477.387 495.66Z" fill="#444444"/>
</svg>
