<svg width="1190" height="605" viewBox="0 0 1190 605" fill="none" xmlns="http://www.w3.org/2000/svg">
<path d="M962.762 492.66H960.714L958.506 488.596L956.314 492.66H954.266L957.418 487.204L954.458 481.988H956.49L958.506 485.828L960.522 481.988H962.57L959.61 487.188L962.762 492.66ZM969.325 492.66H967.741V491.876C967.272 492.526 966.594 492.852 965.709 492.852C965.048 492.852 964.488 492.622 964.029 492.164C963.57 491.694 963.341 491.065 963.341 490.276C963.341 489.486 963.57 488.873 964.029 488.436C964.488 487.988 965.048 487.764 965.709 487.764C966.616 487.764 967.293 488.073 967.741 488.692V487.572C967.741 487.102 967.608 486.74 967.341 486.484C967.085 486.228 966.717 486.1 966.237 486.1C965.533 486.1 964.893 486.393 964.317 486.98L963.693 485.86C964.44 485.113 965.384 484.74 966.525 484.74C967.378 484.74 968.056 484.958 968.557 485.396C969.069 485.822 969.325 486.484 969.325 487.38V492.66ZM966.285 491.748C966.925 491.748 967.41 491.465 967.741 490.9V489.732C967.592 489.465 967.384 489.257 967.117 489.108C966.85 488.948 966.573 488.868 966.285 488.868C965.88 488.868 965.554 489.001 965.309 489.268C965.064 489.534 964.941 489.881 964.941 490.308C964.941 490.734 965.064 491.081 965.309 491.348C965.554 491.614 965.88 491.748 966.285 491.748ZM974.154 491.444C974.708 491.444 975.13 491.188 975.418 490.676C975.706 490.153 975.85 489.513 975.85 488.756C975.85 488.03 975.706 487.417 975.418 486.916C975.13 486.404 974.708 486.148 974.154 486.148C973.61 486.148 973.194 486.404 972.906 486.916C972.618 487.417 972.474 488.03 972.474 488.756C972.474 489.513 972.618 490.153 972.906 490.676C973.194 491.188 973.61 491.444 974.154 491.444ZM974.154 492.852C973.087 492.852 972.266 492.446 971.69 491.636C971.114 490.814 970.826 489.748 970.826 488.436C970.826 486.462 971.066 485.07 971.546 484.26C972.036 483.449 972.911 482.937 974.17 482.724C974.735 482.628 975.124 482.526 975.338 482.42C975.562 482.313 975.674 482.169 975.674 481.988H977.258C977.258 482.34 977.172 482.649 977.002 482.916C976.831 483.172 976.591 483.374 976.282 483.524C975.983 483.673 975.706 483.785 975.45 483.86C975.194 483.934 974.9 483.998 974.57 484.052C973.098 484.286 972.298 484.921 972.17 485.956C972.394 485.582 972.703 485.289 973.098 485.076C973.492 484.852 973.935 484.74 974.426 484.74C975.375 484.74 976.122 485.129 976.666 485.908C977.22 486.686 977.498 487.641 977.498 488.772C977.498 489.913 977.204 490.878 976.618 491.668C976.031 492.457 975.21 492.852 974.154 492.852ZM984.637 492.66H983.053V491.876C982.584 492.526 981.907 492.852 981.021 492.852C980.36 492.852 979.8 492.622 979.341 492.164C978.883 491.694 978.653 491.065 978.653 490.276C978.653 489.486 978.883 488.873 979.341 488.436C979.8 487.988 980.36 487.764 981.021 487.764C981.928 487.764 982.605 488.073 983.053 488.692V487.572C983.053 487.102 982.92 486.74 982.653 486.484C982.397 486.228 982.029 486.1 981.549 486.1C980.845 486.1 980.205 486.393 979.629 486.98L979.005 485.86C979.752 485.113 980.696 484.74 981.837 484.74C982.691 484.74 983.368 484.958 983.869 485.396C984.381 485.822 984.637 486.484 984.637 487.38V492.66ZM981.597 491.748C982.237 491.748 982.723 491.465 983.053 490.9V489.732C982.904 489.465 982.696 489.257 982.429 489.108C982.163 488.948 981.885 488.868 981.597 488.868C981.192 488.868 980.867 489.001 980.621 489.268C980.376 489.534 980.253 489.881 980.253 490.308C980.253 490.734 980.376 491.081 980.621 491.348C980.867 491.614 981.192 491.748 981.597 491.748ZM992.154 491.748C991.653 492.484 990.97 492.852 990.106 492.852C989.242 492.852 988.581 492.441 988.122 491.62V495.604H986.522V484.932H988.122V485.956C988.346 485.572 988.634 485.273 988.986 485.06C989.338 484.846 989.711 484.74 990.106 484.74C990.981 484.74 991.669 485.102 992.17 485.828C992.671 486.553 992.922 487.54 992.922 488.788C992.922 490.025 992.666 491.012 992.154 491.748ZM989.626 491.444C990.159 491.444 990.565 491.198 990.842 490.708C991.13 490.206 991.274 489.566 991.274 488.788C991.274 488.009 991.13 487.374 990.842 486.884C990.565 486.393 990.159 486.148 989.626 486.148C989.327 486.148 989.034 486.249 988.746 486.452C988.469 486.654 988.261 486.905 988.122 487.204V490.372C988.261 490.67 988.469 490.926 988.746 491.14C989.034 491.342 989.327 491.444 989.626 491.444ZM999.805 491.684C999.218 492.462 998.402 492.852 997.357 492.852C996.312 492.852 995.49 492.462 994.893 491.684C994.306 490.905 994.013 489.94 994.013 488.788C994.013 487.636 994.306 486.676 994.893 485.908C995.48 485.129 996.301 484.74 997.357 484.74C998.413 484.74 999.234 485.129 999.821 485.908C1000.41 486.676 1000.7 487.636 1000.7 488.788C1000.7 489.94 1000.4 490.905 999.805 491.684ZM996.093 490.676C996.381 491.188 996.802 491.444 997.357 491.444C997.912 491.444 998.333 491.188 998.621 490.676C998.909 490.164 999.053 489.534 999.053 488.788C999.053 488.041 998.909 487.417 998.621 486.916C998.333 486.404 997.912 486.148 997.357 486.148C996.802 486.148 996.381 486.404 996.093 486.916C995.805 487.417 995.661 488.041 995.661 488.788C995.661 489.534 995.805 490.164 996.093 490.676ZM1005.87 492.66H1002.21V484.932H1005.78C1006.53 484.932 1007.11 485.118 1007.51 485.492C1007.91 485.854 1008.11 486.324 1008.11 486.9C1008.11 487.348 1007.99 487.726 1007.75 488.036C1007.51 488.334 1007.19 488.542 1006.79 488.66C1007.21 488.756 1007.56 488.985 1007.84 489.348C1008.12 489.7 1008.26 490.105 1008.26 490.564C1008.26 491.193 1008.05 491.7 1007.65 492.084C1007.25 492.468 1006.66 492.66 1005.87 492.66ZM1005.54 491.316C1006.26 491.316 1006.63 490.996 1006.63 490.356C1006.63 490.078 1006.53 489.844 1006.34 489.652C1006.16 489.46 1005.89 489.364 1005.54 489.364H1003.81V491.316H1005.54ZM1005.47 488.036C1006.13 488.036 1006.47 487.742 1006.47 487.156C1006.47 486.889 1006.38 486.676 1006.21 486.516C1006.05 486.345 1005.8 486.26 1005.47 486.26H1003.81V488.036H1005.47ZM1015.37 491.812C1014.81 492.505 1014.03 492.852 1013.01 492.852C1012 492.852 1011.18 492.473 1010.55 491.716C1009.93 490.948 1009.62 489.972 1009.62 488.788C1009.62 487.604 1009.93 486.633 1010.55 485.876C1011.17 485.118 1011.99 484.74 1013.01 484.74C1014.03 484.74 1014.81 485.086 1015.37 485.78L1014.55 486.868C1014.18 486.388 1013.72 486.148 1013.17 486.148C1012.59 486.148 1012.12 486.398 1011.78 486.9C1011.44 487.401 1011.27 488.03 1011.27 488.788C1011.27 489.556 1011.44 490.19 1011.78 490.692C1012.12 491.193 1012.59 491.444 1013.17 491.444C1013.71 491.444 1014.17 491.204 1014.55 490.724L1015.37 491.812ZM1022.87 492.66H1021L1019.18 489.428L1018.25 490.676V492.66H1016.65V484.932H1018.25V488.724L1020.97 484.932H1022.82L1020.26 488.404L1022.87 492.66Z" fill="#444444"/>
<circle cx="988.5" cy="501.66" r="4" fill="#444444"/>
<circle cx="975.633" cy="578.918" r="4" fill="#444444"/>
<path d="M939.879 597.918H935.719V587.246H939.751C940.626 587.246 941.303 587.502 941.783 588.014C942.263 588.526 942.503 589.177 942.503 589.966C942.503 590.617 942.343 591.156 942.023 591.582C941.714 591.998 941.314 592.276 940.823 592.414C941.346 592.489 941.783 592.782 942.135 593.294C942.498 593.796 942.679 594.377 942.679 595.038C942.679 595.902 942.439 596.601 941.959 597.134C941.479 597.657 940.786 597.918 939.879 597.918ZM939.367 591.694C939.805 591.694 940.13 591.566 940.343 591.31C940.567 591.044 940.679 590.692 940.679 590.254C940.679 589.817 940.567 589.465 940.343 589.198C940.119 588.932 939.794 588.798 939.367 588.798H937.495V591.694H939.367ZM939.431 596.35C939.901 596.35 940.253 596.217 940.487 595.95C940.733 595.673 940.855 595.289 940.855 594.798C940.855 594.35 940.733 593.982 940.487 593.694C940.242 593.406 939.89 593.262 939.431 593.262H937.495V596.35H939.431ZM943.515 598.11V596.75C943.845 596.75 944.101 596.574 944.283 596.222C944.475 595.87 944.613 595.209 944.699 594.238L945.051 590.19H950.043V597.918H948.459V591.582H946.507L946.299 594.366C946.192 595.732 945.909 596.697 945.451 597.262C944.992 597.828 944.347 598.11 943.515 598.11ZM957.52 597.918H955.936V597.134C955.467 597.785 954.79 598.11 953.904 598.11C953.243 598.11 952.683 597.881 952.224 597.422C951.766 596.953 951.536 596.324 951.536 595.534C951.536 594.745 951.766 594.132 952.224 593.694C952.683 593.246 953.243 593.022 953.904 593.022C954.811 593.022 955.488 593.332 955.936 593.95V592.83C955.936 592.361 955.803 591.998 955.536 591.742C955.28 591.486 954.912 591.358 954.432 591.358C953.728 591.358 953.088 591.652 952.512 592.238L951.888 591.118C952.635 590.372 953.579 589.998 954.72 589.998C955.574 589.998 956.251 590.217 956.752 590.654C957.264 591.081 957.52 591.742 957.52 592.638V597.918ZM954.48 597.006C955.12 597.006 955.606 596.724 955.936 596.158V594.99C955.787 594.724 955.579 594.516 955.312 594.366C955.046 594.206 954.768 594.126 954.48 594.126C954.075 594.126 953.75 594.26 953.504 594.526C953.259 594.793 953.136 595.14 953.136 595.566C953.136 595.993 953.259 596.34 953.504 596.606C953.75 596.873 954.075 597.006 954.48 597.006ZM958.749 599.886V596.654C959.112 596.58 959.378 596.393 959.549 596.094C959.72 595.796 959.848 595.177 959.933 594.238L960.285 590.19H965.277V596.526H966.109V599.886H964.509V597.918H960.333V599.886H958.749ZM961.741 591.582L961.533 594.366C961.458 595.326 961.17 596.046 960.669 596.526H963.693V591.582H961.741ZM968.848 597.918H967.296V590.19H968.896V595.038L971.536 590.19H973.168V597.918H971.584V592.91L968.848 597.918ZM978.725 597.918H975.061V590.19H978.629C979.387 590.19 979.963 590.377 980.357 590.75C980.763 591.113 980.965 591.582 980.965 592.158C980.965 592.606 980.843 592.985 980.597 593.294C980.363 593.593 980.043 593.801 979.637 593.918C980.064 594.014 980.416 594.244 980.693 594.606C980.971 594.958 981.109 595.364 981.109 595.822C981.109 596.452 980.907 596.958 980.501 597.342C980.107 597.726 979.515 597.918 978.725 597.918ZM978.389 596.574C979.115 596.574 979.477 596.254 979.477 595.614C979.477 595.337 979.381 595.102 979.189 594.91C979.008 594.718 978.741 594.622 978.389 594.622H976.661V596.574H978.389ZM978.325 593.294C978.987 593.294 979.317 593.001 979.317 592.414C979.317 592.148 979.232 591.934 979.061 591.774C978.901 591.604 978.656 591.518 978.325 591.518H976.661V593.294H978.325ZM988.266 596.942C987.679 597.721 986.863 598.11 985.818 598.11C984.773 598.11 983.951 597.721 983.354 596.942C982.767 596.164 982.474 595.198 982.474 594.046C982.474 592.894 982.767 591.934 983.354 591.166C983.941 590.388 984.762 589.998 985.818 589.998C986.874 589.998 987.695 590.388 988.282 591.166C988.869 591.934 989.162 592.894 989.162 594.046C989.162 595.198 988.863 596.164 988.266 596.942ZM984.554 595.934C984.842 596.446 985.263 596.702 985.818 596.702C986.373 596.702 986.794 596.446 987.082 595.934C987.37 595.422 987.514 594.793 987.514 594.046C987.514 593.3 987.37 592.676 987.082 592.174C986.794 591.662 986.373 591.406 985.818 591.406C985.263 591.406 984.842 591.662 984.554 592.174C984.266 592.676 984.122 593.3 984.122 594.046C984.122 594.793 984.266 595.422 984.554 595.934ZM996.031 597.07C995.476 597.764 994.692 598.11 993.679 598.11C992.665 598.11 991.844 597.732 991.215 596.974C990.596 596.206 990.287 595.23 990.287 594.046C990.287 592.862 990.596 591.892 991.215 591.134C991.833 590.377 992.655 589.998 993.679 589.998C994.692 589.998 995.476 590.345 996.031 591.038L995.215 592.126C994.841 591.646 994.383 591.406 993.839 591.406C993.252 591.406 992.788 591.657 992.447 592.158C992.105 592.66 991.935 593.289 991.935 594.046C991.935 594.814 992.105 595.449 992.447 595.95C992.788 596.452 993.252 596.702 993.839 596.702C994.372 596.702 994.831 596.462 995.215 595.982L996.031 597.07ZM999.999 597.918H998.399V591.582H996.655V590.19H1001.74V591.582H999.999V597.918ZM1008.38 596.942C1007.79 597.721 1006.97 598.11 1005.93 598.11C1004.88 598.11 1004.06 597.721 1003.46 596.942C1002.88 596.164 1002.58 595.198 1002.58 594.046C1002.58 592.894 1002.88 591.934 1003.46 591.166C1004.05 590.388 1004.87 589.998 1005.93 589.998C1006.98 589.998 1007.8 590.388 1008.39 591.166C1008.98 591.934 1009.27 592.894 1009.27 594.046C1009.27 595.198 1008.97 596.164 1008.38 596.942ZM1004.66 595.934C1004.95 596.446 1005.37 596.702 1005.93 596.702C1006.48 596.702 1006.9 596.446 1007.19 595.934C1007.48 595.422 1007.62 594.793 1007.62 594.046C1007.62 593.3 1007.48 592.676 1007.19 592.174C1006.9 591.662 1006.48 591.406 1005.93 591.406C1005.37 591.406 1004.95 591.662 1004.66 592.174C1004.38 592.676 1004.23 593.3 1004.23 594.046C1004.23 594.793 1004.38 595.422 1004.66 595.934ZM1017 597.918H1015.13L1013.31 594.686L1012.38 595.934V597.918H1010.78V590.19H1012.38V593.982L1015.1 590.19H1016.96L1014.4 593.662L1017 597.918Z" fill="#444444"/>
</svg>
